<svg xmlns="http://www.w3.org/2000/svg" xmlns:xlink="http://www.w3.org/1999/xlink" width="40" zoomAndPan="magnify" viewBox="0 0 30 46.499999" height="62" preserveAspectRatio="xMidYMid meet" version="1.0"><defs><clipPath id="f7a6b56e18"><path d="M 0.160156 0 L 29.839844 0 L 29.839844 46.003906 L 0.160156 46.003906 Z M 0.160156 0 " clip-rule="nonzero"/></clipPath><clipPath id="34b74bbddf"><path d="M 0.160156 0 L 29.097656 0 L 29.097656 45.261719 L 0.160156 45.261719 Z M 0.160156 0 " clip-rule="nonzero"/></clipPath></defs><g clip-path="url(#f7a6b56e18)"><path fill="#ffffff" d="M 0.160156 0 L 29.839844 0 L 29.839844 46.003906 L 0.160156 46.003906 Z M 0.160156 0 " fill-opacity="1" fill-rule="nonzero"/><path fill="#ffffff" d="M 0.160156 0 L 29.839844 0 L 29.839844 46.003906 L 0.160156 46.003906 Z M 0.160156 0 " fill-opacity="1" fill-rule="nonzero"/></g><g clip-path="url(#34b74bbddf)"><path fill="#5e17eb" d="M 23.882812 0.0078125 L 5.316406 0.0078125 C 2.46875 0.0078125 0.160156 2.320312 0.160156 5.167969 L 0.160156 40.234375 C 0.160156 43.082031 2.46875 45.394531 5.316406 45.394531 L 23.882812 45.394531 C 26.730469 45.394531 29.039062 43.082031 29.039062 40.234375 L 29.039062 5.167969 C 29.039062 2.320312 26.730469 0.0078125 23.882812 0.0078125 Z M 14.601562 41.523438 C 13.316406 41.523438 12.277344 40.488281 12.277344 39.203125 C 12.277344 37.921875 13.316406 36.882812 14.601562 36.882812 C 15.882812 36.882812 16.921875 37.921875 16.921875 39.203125 C 16.921875 40.488281 15.882812 41.523438 14.601562 41.523438 Z M 24.914062 35.078125 L 4.285156 35.078125 L 4.285156 6.199219 L 24.914062 6.199219 Z M 24.914062 35.078125 " fill-opacity="1" fill-rule="nonzero"/></g></svg>