<svg xmlns="http://www.w3.org/2000/svg" xmlns:xlink="http://www.w3.org/1999/xlink" width="1920" zoomAndPan="magnify" viewBox="0 0 1440 809.999993" height="1080" preserveAspectRatio="xMidYMid meet" version="1.0"><defs><filter x="0%" y="0%" width="100%" height="100%" id="2546bc6620"><feColorMatrix values="0 0 0 0 1 0 0 0 0 1 0 0 0 0 1 0 0 0 1 0" color-interpolation-filters="sRGB"/></filter><g/><mask id="2cbfdd3666"><g filter="url(#2546bc6620)"><rect x="-144" width="1728" fill="#000000" y="-80.999999" height="971.999992" fill-opacity="0.49"/></g></mask><clipPath id="6c1a76eb1f"><path d="M 0.640625 0 L 317.679688 0 L 317.679688 810 L 0.640625 810 Z M 0.640625 0 " clip-rule="nonzero"/></clipPath><clipPath id="6493ea016b"><path d="M 276.832031 659.109375 L 317.492188 659.109375 L 317.492188 810 L 276.832031 810 Z M 276.832031 659.109375 " clip-rule="nonzero"/></clipPath><clipPath id="df32bfc044"><path d="M 0.832031 0.109375 L 41.492188 0.109375 L 41.492188 151 L 0.832031 151 Z M 0.832031 0.109375 " clip-rule="nonzero"/></clipPath><clipPath id="54d1e1b3e9"><rect x="0" width="42" y="0" height="151"/></clipPath><clipPath id="6b9435d837"><path d="M 238.351562 558.566406 L 277.929688 558.566406 L 277.929688 709.457031 L 238.351562 709.457031 Z M 238.351562 558.566406 " clip-rule="nonzero"/></clipPath><clipPath id="e7ae4ce141"><path d="M 0.351562 0.566406 L 39.929688 0.566406 L 39.929688 151.457031 L 0.351562 151.457031 Z M 0.351562 0.566406 " clip-rule="nonzero"/></clipPath><clipPath id="48fe9a452c"><rect x="0" width="40" y="0" height="152"/></clipPath><clipPath id="fbfce7d9e0"><path d="M 198.769531 558.566406 L 241.03125 558.566406 L 241.03125 610.082031 L 198.769531 610.082031 Z M 198.769531 558.566406 " clip-rule="nonzero"/></clipPath><clipPath id="7ef207eb40"><path d="M 0.769531 0.566406 L 43.03125 0.566406 L 43.03125 52.082031 L 0.769531 52.082031 Z M 0.769531 0.566406 " clip-rule="nonzero"/></clipPath><clipPath id="50099cbca3"><rect x="0" width="44" y="0" height="53"/></clipPath><clipPath id="32d5a176c2"><path d="M 159.1875 459.191406 L 198.769531 459.191406 L 198.769531 558.566406 L 159.1875 558.566406 Z M 159.1875 459.191406 " clip-rule="nonzero"/></clipPath><clipPath id="742a7b9817"><path d="M 0.1875 0.191406 L 39.769531 0.191406 L 39.769531 99.566406 L 0.1875 99.566406 Z M 0.1875 0.191406 " clip-rule="nonzero"/></clipPath><clipPath id="7a888dff96"><rect x="0" width="40" y="0" height="100"/></clipPath><clipPath id="c51d9f6f03"><path d="M 196.570312 359.816406 L 236.148438 359.816406 L 236.148438 459.191406 L 196.570312 459.191406 Z M 196.570312 359.816406 " clip-rule="nonzero"/></clipPath><clipPath id="36957168f2"><path d="M 0.570312 0.816406 L 40.148438 0.816406 L 40.148438 100.191406 L 0.570312 100.191406 Z M 0.570312 0.816406 " clip-rule="nonzero"/></clipPath><clipPath id="fa3e7cbbbc"><rect x="0" width="41" y="0" height="101"/></clipPath><clipPath id="19079a8f71"><path d="M 156.988281 359.816406 L 198.769531 359.816406 L 198.769531 409.503906 L 156.988281 409.503906 Z M 156.988281 359.816406 " clip-rule="nonzero"/></clipPath><clipPath id="f75de7d4cb"><path d="M 0.988281 0.816406 L 42.769531 0.816406 L 42.769531 50.503906 L 0.988281 50.503906 Z M 0.988281 0.816406 " clip-rule="nonzero"/></clipPath><clipPath id="7cfe255cd1"><rect x="0" width="43" y="0" height="51"/></clipPath><clipPath id="9bebb5de86"><path d="M 117.40625 310.128906 L 156.988281 310.128906 L 156.988281 359.816406 L 117.40625 359.816406 Z M 117.40625 310.128906 " clip-rule="nonzero"/></clipPath><clipPath id="095dea58aa"><path d="M 0.40625 0.128906 L 39.988281 0.128906 L 39.988281 49.816406 L 0.40625 49.816406 Z M 0.40625 0.128906 " clip-rule="nonzero"/></clipPath><clipPath id="2aec00e514"><rect x="0" width="40" y="0" height="50"/></clipPath><clipPath id="5cba6517b5"><path d="M 77.828125 260.441406 L 117.40625 260.441406 L 117.40625 310.128906 L 77.828125 310.128906 Z M 77.828125 260.441406 " clip-rule="nonzero"/></clipPath><clipPath id="0eccd395a1"><path d="M 0.828125 0.441406 L 40.40625 0.441406 L 40.40625 50.128906 L 0.828125 50.128906 Z M 0.828125 0.441406 " clip-rule="nonzero"/></clipPath><clipPath id="782a9f62fb"><rect x="0" width="41" y="0" height="51"/></clipPath><clipPath id="bc9376dddb"><path d="M 119.609375 160.289062 L 159.1875 160.289062 L 159.1875 260.441406 L 119.609375 260.441406 Z M 119.609375 160.289062 " clip-rule="nonzero"/></clipPath><clipPath id="5546c171ac"><path d="M 0.609375 0.289062 L 40.1875 0.289062 L 40.1875 100.441406 L 0.609375 100.441406 Z M 0.609375 0.289062 " clip-rule="nonzero"/></clipPath><clipPath id="418c846c0d"><rect x="0" width="41" y="0" height="101"/></clipPath><clipPath id="941a919570"><path d="M 77.828125 107.90625 L 119.609375 107.90625 L 119.609375 161.691406 L 77.828125 161.691406 Z M 77.828125 107.90625 " clip-rule="nonzero"/></clipPath><clipPath id="af96009f81"><path d="M 0.828125 0.90625 L 42.609375 0.90625 L 42.609375 54.691406 L 0.828125 54.691406 Z M 0.828125 0.90625 " clip-rule="nonzero"/></clipPath><clipPath id="3e0b8b7e0b"><rect x="0" width="43" y="0" height="55"/></clipPath><clipPath id="29734aa506"><path d="M 40.445312 61.023438 L 80.027344 61.023438 L 80.027344 111.355469 L 40.445312 111.355469 Z M 40.445312 61.023438 " clip-rule="nonzero"/></clipPath><clipPath id="38a42092ff"><path d="M 0.445312 0.0234375 L 40.027344 0.0234375 L 40.027344 50.355469 L 0.445312 50.355469 Z M 0.445312 0.0234375 " clip-rule="nonzero"/></clipPath><clipPath id="c6f2a3a1d7"><rect x="0" width="41" y="0" height="51"/></clipPath><clipPath id="e326a2b069"><path d="M 0.867188 0 L 40.445312 0 L 40.445312 61.023438 L 0.867188 61.023438 Z M 0.867188 0 " clip-rule="nonzero"/></clipPath><clipPath id="6b7487394c"><path d="M 0.867188 0 L 40.445312 0 L 40.445312 61.023438 L 0.867188 61.023438 Z M 0.867188 0 " clip-rule="nonzero"/></clipPath><clipPath id="2ebb93fa98"><rect x="0" width="41" y="0" height="62"/></clipPath><clipPath id="a6566f9743"><rect x="0" width="318" y="0" height="810"/></clipPath><clipPath id="1d4961f286"><rect x="0" width="318" y="0" height="810"/></clipPath><mask id="d3cebaf3de"><g filter="url(#2546bc6620)"><rect x="-144" width="1728" fill="#000000" y="-80.999999" height="971.999992" fill-opacity="0.49"/></g></mask><clipPath id="9d817b4f46"><path d="M 0.519531 0 L 247 0 L 247 737.28125 L 0.519531 737.28125 Z M 0.519531 0 " clip-rule="nonzero"/></clipPath><clipPath id="8800f1465f"><path d="M 0.546875 0 L 41.5 0 L 41.5 138.890625 L 0.546875 138.890625 Z M 0.546875 0 " clip-rule="nonzero"/></clipPath><clipPath id="3491f4790d"><path d="M 0.546875 0 L 41.5 0 L 41.5 138.890625 L 0.546875 138.890625 Z M 0.546875 0 " clip-rule="nonzero"/></clipPath><clipPath id="2f2915d8e9"><rect x="0" width="42" y="0" height="139"/></clipPath><clipPath id="4b451ed293"><path d="M 40.390625 88.542969 L 80.257812 88.542969 L 80.257812 239.433594 L 40.390625 239.433594 Z M 40.390625 88.542969 " clip-rule="nonzero"/></clipPath><clipPath id="161b6d7381"><path d="M 0.390625 0.542969 L 40.257812 0.542969 L 40.257812 151.433594 L 0.390625 151.433594 Z M 0.390625 0.542969 " clip-rule="nonzero"/></clipPath><clipPath id="abd7ef2626"><rect x="0" width="41" y="0" height="152"/></clipPath><clipPath id="eb4ec6b428"><path d="M 77.558594 187.917969 L 120.125 187.917969 L 120.125 239.433594 L 77.558594 239.433594 Z M 77.558594 187.917969 " clip-rule="nonzero"/></clipPath><clipPath id="69aa7edb37"><path d="M 0.558594 0.917969 L 43.125 0.917969 L 43.125 52.433594 L 0.558594 52.433594 Z M 0.558594 0.917969 " clip-rule="nonzero"/></clipPath><clipPath id="98f7c723f9"><rect x="0" width="44" y="0" height="53"/></clipPath><clipPath id="32a6e33bf5"><path d="M 120.125 239.433594 L 159.988281 239.433594 L 159.988281 338.808594 L 120.125 338.808594 Z M 120.125 239.433594 " clip-rule="nonzero"/></clipPath><clipPath id="e8bdbb4e9c"><path d="M 0.125 0.433594 L 39.988281 0.433594 L 39.988281 99.808594 L 0.125 99.808594 Z M 0.125 0.433594 " clip-rule="nonzero"/></clipPath><clipPath id="8f4bf5e771"><rect x="0" width="40" y="0" height="100"/></clipPath><clipPath id="a21c976e3c"><path d="M 82.472656 338.808594 L 122.339844 338.808594 L 122.339844 438.183594 L 82.472656 438.183594 Z M 82.472656 338.808594 " clip-rule="nonzero"/></clipPath><clipPath id="f8b6706006"><path d="M 0.472656 0.808594 L 40.339844 0.808594 L 40.339844 100.183594 L 0.472656 100.183594 Z M 0.472656 0.808594 " clip-rule="nonzero"/></clipPath><clipPath id="6400e716f9"><rect x="0" width="41" y="0" height="101"/></clipPath><clipPath id="f8f14fc77a"><path d="M 120.125 388.496094 L 162.207031 388.496094 L 162.207031 438.183594 L 120.125 438.183594 Z M 120.125 388.496094 " clip-rule="nonzero"/></clipPath><clipPath id="fa148bbef9"><path d="M 0.125 0.496094 L 42.207031 0.496094 L 42.207031 50.183594 L 0.125 50.183594 Z M 0.125 0.496094 " clip-rule="nonzero"/></clipPath><clipPath id="d6a39be73e"><rect x="0" width="43" y="0" height="51"/></clipPath><clipPath id="e3aab7fd51"><path d="M 162.207031 438.183594 L 202.070312 438.183594 L 202.070312 487.871094 L 162.207031 487.871094 Z M 162.207031 438.183594 " clip-rule="nonzero"/></clipPath><clipPath id="853f1e58ac"><path d="M 0.207031 0.183594 L 40.070312 0.183594 L 40.070312 49.871094 L 0.207031 49.871094 Z M 0.207031 0.183594 " clip-rule="nonzero"/></clipPath><clipPath id="0210b19a6d"><rect x="0" width="41" y="0" height="50"/></clipPath><clipPath id="b390a130a6"><path d="M 202.070312 487.871094 L 241.9375 487.871094 L 241.9375 537.558594 L 202.070312 537.558594 Z M 202.070312 487.871094 " clip-rule="nonzero"/></clipPath><clipPath id="1a2badfe36"><path d="M 0.0703125 0.871094 L 39.9375 0.871094 L 39.9375 50.558594 L 0.0703125 50.558594 Z M 0.0703125 0.871094 " clip-rule="nonzero"/></clipPath><clipPath id="1ca2331044"><rect x="0" width="40" y="0" height="51"/></clipPath><clipPath id="fbd6920033"><path d="M 159.988281 537.558594 L 199.855469 537.558594 L 199.855469 637.710938 L 159.988281 637.710938 Z M 159.988281 537.558594 " clip-rule="nonzero"/></clipPath><clipPath id="e600be48ef"><path d="M 0.988281 0.558594 L 40.855469 0.558594 L 40.855469 100.710938 L 0.988281 100.710938 Z M 0.988281 0.558594 " clip-rule="nonzero"/></clipPath><clipPath id="28989004c6"><rect x="0" width="41" y="0" height="101"/></clipPath><clipPath id="6ea848f916"><path d="M 199.855469 636.308594 L 241.9375 636.308594 L 241.9375 690.09375 L 199.855469 690.09375 Z M 199.855469 636.308594 " clip-rule="nonzero"/></clipPath><clipPath id="034f7ce2a4"><path d="M 0.855469 0.308594 L 42.9375 0.308594 L 42.9375 54.09375 L 0.855469 54.09375 Z M 0.855469 0.308594 " clip-rule="nonzero"/></clipPath><clipPath id="e1b9d7a408"><rect x="0" width="43" y="0" height="55"/></clipPath><clipPath id="052c34151f"><path d="M 239.722656 686.644531 L 247 686.644531 L 247 736.976562 L 239.722656 736.976562 Z M 239.722656 686.644531 " clip-rule="nonzero"/></clipPath><clipPath id="963eaf6729"><path d="M 0.722656 0.644531 L 8 0.644531 L 8 50.976562 L 0.722656 50.976562 Z M 0.722656 0.644531 " clip-rule="nonzero"/></clipPath><clipPath id="ba540f7f35"><rect x="0" width="8" y="0" height="51"/></clipPath><clipPath id="c36da6df2a"><rect x="0" width="247" y="0" height="738"/></clipPath><clipPath id="f5110e4a13"><rect x="0" width="247" y="0" height="738"/></clipPath><mask id="9a0d8bcb21"><g filter="url(#2546bc6620)"><rect x="-144" width="1728" fill="#000000" y="-80.999999" height="971.999992" fill-opacity="0.49"/></g></mask><clipPath id="e722af3520"><path d="M 0.519531 0 L 235 0 L 235 702.238281 L 0.519531 702.238281 Z M 0.519531 0 " clip-rule="nonzero"/></clipPath><clipPath id="8af50b1cc1"><path d="M 0.546875 0 L 41.5 0 L 41.5 150.890625 L 0.546875 150.890625 Z M 0.546875 0 " clip-rule="nonzero"/></clipPath><clipPath id="ea0f0dbd95"><path d="M 0.546875 0 L 41.5 0 L 41.5 150.890625 L 0.546875 150.890625 Z M 0.546875 0 " clip-rule="nonzero"/></clipPath><clipPath id="958df919b5"><rect x="0" width="42" y="0" height="151"/></clipPath><clipPath id="ff4b2dab12"><path d="M 40.390625 100.542969 L 80.257812 100.542969 L 80.257812 251.433594 L 40.390625 251.433594 Z M 40.390625 100.542969 " clip-rule="nonzero"/></clipPath><clipPath id="6b6614bc44"><path d="M 0.390625 0.542969 L 40.257812 0.542969 L 40.257812 151.433594 L 0.390625 151.433594 Z M 0.390625 0.542969 " clip-rule="nonzero"/></clipPath><clipPath id="7375b2b501"><rect x="0" width="41" y="0" height="152"/></clipPath><clipPath id="df0d2e5ebf"><path d="M 77.558594 199.917969 L 120.125 199.917969 L 120.125 251.433594 L 77.558594 251.433594 Z M 77.558594 199.917969 " clip-rule="nonzero"/></clipPath><clipPath id="b751f4eb90"><path d="M 0.558594 0.917969 L 43.125 0.917969 L 43.125 52.433594 L 0.558594 52.433594 Z M 0.558594 0.917969 " clip-rule="nonzero"/></clipPath><clipPath id="1153c1ac03"><rect x="0" width="44" y="0" height="53"/></clipPath><clipPath id="d87c9a768f"><path d="M 120.125 251.433594 L 159.988281 251.433594 L 159.988281 350.808594 L 120.125 350.808594 Z M 120.125 251.433594 " clip-rule="nonzero"/></clipPath><clipPath id="1a719688d3"><path d="M 0.125 0.433594 L 39.988281 0.433594 L 39.988281 99.808594 L 0.125 99.808594 Z M 0.125 0.433594 " clip-rule="nonzero"/></clipPath><clipPath id="440a1095d5"><rect x="0" width="40" y="0" height="100"/></clipPath><clipPath id="dd77df4013"><path d="M 82.472656 350.808594 L 122.339844 350.808594 L 122.339844 450.183594 L 82.472656 450.183594 Z M 82.472656 350.808594 " clip-rule="nonzero"/></clipPath><clipPath id="6c51ab9584"><path d="M 0.472656 0.808594 L 40.339844 0.808594 L 40.339844 100.183594 L 0.472656 100.183594 Z M 0.472656 0.808594 " clip-rule="nonzero"/></clipPath><clipPath id="c295a28823"><rect x="0" width="41" y="0" height="101"/></clipPath><clipPath id="f58416c350"><path d="M 120.125 400.496094 L 162.207031 400.496094 L 162.207031 450.183594 L 120.125 450.183594 Z M 120.125 400.496094 " clip-rule="nonzero"/></clipPath><clipPath id="2083cba8cb"><path d="M 0.125 0.496094 L 42.207031 0.496094 L 42.207031 50.183594 L 0.125 50.183594 Z M 0.125 0.496094 " clip-rule="nonzero"/></clipPath><clipPath id="911d7a3052"><rect x="0" width="43" y="0" height="51"/></clipPath><clipPath id="7ce4c416a4"><path d="M 162.207031 450.183594 L 202.070312 450.183594 L 202.070312 499.871094 L 162.207031 499.871094 Z M 162.207031 450.183594 " clip-rule="nonzero"/></clipPath><clipPath id="3924ab8140"><path d="M 0.207031 0.183594 L 40.070312 0.183594 L 40.070312 49.871094 L 0.207031 49.871094 Z M 0.207031 0.183594 " clip-rule="nonzero"/></clipPath><clipPath id="e9fff624d7"><rect x="0" width="41" y="0" height="50"/></clipPath><clipPath id="6becd74f2c"><path d="M 202.070312 499.871094 L 235 499.871094 L 235 549.558594 L 202.070312 549.558594 Z M 202.070312 499.871094 " clip-rule="nonzero"/></clipPath><clipPath id="df332b14f0"><path d="M 0.0703125 0.871094 L 33 0.871094 L 33 50.558594 L 0.0703125 50.558594 Z M 0.0703125 0.871094 " clip-rule="nonzero"/></clipPath><clipPath id="68aaa7303b"><rect x="0" width="33" y="0" height="51"/></clipPath><clipPath id="8c9e7173f9"><path d="M 159.988281 549.558594 L 199.855469 549.558594 L 199.855469 649.710938 L 159.988281 649.710938 Z M 159.988281 549.558594 " clip-rule="nonzero"/></clipPath><clipPath id="064c147395"><path d="M 0.988281 0.558594 L 40.855469 0.558594 L 40.855469 100.710938 L 0.988281 100.710938 Z M 0.988281 0.558594 " clip-rule="nonzero"/></clipPath><clipPath id="919300baea"><rect x="0" width="41" y="0" height="101"/></clipPath><clipPath id="95d5ddd1b6"><path d="M 199.855469 648.308594 L 235 648.308594 L 235 702.09375 L 199.855469 702.09375 Z M 199.855469 648.308594 " clip-rule="nonzero"/></clipPath><clipPath id="17464ea02a"><path d="M 0.855469 0.308594 L 36 0.308594 L 36 54.09375 L 0.855469 54.09375 Z M 0.855469 0.308594 " clip-rule="nonzero"/></clipPath><clipPath id="d82d61b4ec"><rect x="0" width="36" y="0" height="55"/></clipPath><clipPath id="35bdb77605"><rect x="0" width="235" y="0" height="703"/></clipPath><clipPath id="8fb3b04e3c"><rect x="0" width="235" y="0" height="703"/></clipPath><mask id="702e808b1a"><g filter="url(#2546bc6620)"><rect x="-144" width="1728" fill="#000000" y="-80.999999" height="971.999992" fill-opacity="0.49"/></g></mask><clipPath id="facccca97d"><path d="M 0.640625 0.761719 L 317.679688 0.761719 L 317.679688 799 L 0.640625 799 Z M 0.640625 0.761719 " clip-rule="nonzero"/></clipPath><clipPath id="a9aae47554"><path d="M 276.832031 660.109375 L 317.492188 660.109375 L 317.492188 799 L 276.832031 799 Z M 276.832031 660.109375 " clip-rule="nonzero"/></clipPath><clipPath id="b11673747f"><path d="M 0.832031 0.109375 L 41.492188 0.109375 L 41.492188 139 L 0.832031 139 Z M 0.832031 0.109375 " clip-rule="nonzero"/></clipPath><clipPath id="c9f20dd0a8"><rect x="0" width="42" y="0" height="139"/></clipPath><clipPath id="8eb990f3e6"><path d="M 238.351562 559.566406 L 277.929688 559.566406 L 277.929688 710.457031 L 238.351562 710.457031 Z M 238.351562 559.566406 " clip-rule="nonzero"/></clipPath><clipPath id="d9f2e59da0"><path d="M 0.351562 0.566406 L 39.929688 0.566406 L 39.929688 151.457031 L 0.351562 151.457031 Z M 0.351562 0.566406 " clip-rule="nonzero"/></clipPath><clipPath id="f39e626904"><rect x="0" width="40" y="0" height="152"/></clipPath><clipPath id="061289e790"><path d="M 198.769531 559.566406 L 241.03125 559.566406 L 241.03125 611.082031 L 198.769531 611.082031 Z M 198.769531 559.566406 " clip-rule="nonzero"/></clipPath><clipPath id="8745afc604"><path d="M 0.769531 0.566406 L 43.03125 0.566406 L 43.03125 52.082031 L 0.769531 52.082031 Z M 0.769531 0.566406 " clip-rule="nonzero"/></clipPath><clipPath id="66b951e5b6"><rect x="0" width="44" y="0" height="53"/></clipPath><clipPath id="69c5903cbe"><path d="M 159.1875 460.191406 L 198.769531 460.191406 L 198.769531 559.566406 L 159.1875 559.566406 Z M 159.1875 460.191406 " clip-rule="nonzero"/></clipPath><clipPath id="ed74096dc7"><path d="M 0.1875 0.191406 L 39.769531 0.191406 L 39.769531 99.566406 L 0.1875 99.566406 Z M 0.1875 0.191406 " clip-rule="nonzero"/></clipPath><clipPath id="42165d7e1e"><rect x="0" width="40" y="0" height="100"/></clipPath><clipPath id="553900f241"><path d="M 196.570312 360.816406 L 236.148438 360.816406 L 236.148438 460.191406 L 196.570312 460.191406 Z M 196.570312 360.816406 " clip-rule="nonzero"/></clipPath><clipPath id="57cd9c806b"><path d="M 0.570312 0.816406 L 40.148438 0.816406 L 40.148438 100.191406 L 0.570312 100.191406 Z M 0.570312 0.816406 " clip-rule="nonzero"/></clipPath><clipPath id="8026cc3ebc"><rect x="0" width="41" y="0" height="101"/></clipPath><clipPath id="fc4616ab13"><path d="M 156.988281 360.816406 L 198.769531 360.816406 L 198.769531 410.503906 L 156.988281 410.503906 Z M 156.988281 360.816406 " clip-rule="nonzero"/></clipPath><clipPath id="98b4f0bfc8"><path d="M 0.988281 0.816406 L 42.769531 0.816406 L 42.769531 50.503906 L 0.988281 50.503906 Z M 0.988281 0.816406 " clip-rule="nonzero"/></clipPath><clipPath id="99e9c629f0"><rect x="0" width="43" y="0" height="51"/></clipPath><clipPath id="4a4aea98ab"><path d="M 117.40625 311.128906 L 156.988281 311.128906 L 156.988281 360.816406 L 117.40625 360.816406 Z M 117.40625 311.128906 " clip-rule="nonzero"/></clipPath><clipPath id="39ea9e8a7c"><path d="M 0.40625 0.128906 L 39.988281 0.128906 L 39.988281 49.816406 L 0.40625 49.816406 Z M 0.40625 0.128906 " clip-rule="nonzero"/></clipPath><clipPath id="add5a9f7bd"><rect x="0" width="40" y="0" height="50"/></clipPath><clipPath id="e19667f7a1"><path d="M 77.828125 261.441406 L 117.40625 261.441406 L 117.40625 311.128906 L 77.828125 311.128906 Z M 77.828125 261.441406 " clip-rule="nonzero"/></clipPath><clipPath id="aa27aa8733"><path d="M 0.828125 0.441406 L 40.40625 0.441406 L 40.40625 50.128906 L 0.828125 50.128906 Z M 0.828125 0.441406 " clip-rule="nonzero"/></clipPath><clipPath id="00d153e29b"><rect x="0" width="41" y="0" height="51"/></clipPath><clipPath id="4c74dcc757"><path d="M 119.609375 161.289062 L 159.1875 161.289062 L 159.1875 261.441406 L 119.609375 261.441406 Z M 119.609375 161.289062 " clip-rule="nonzero"/></clipPath><clipPath id="e349e07d4f"><path d="M 0.609375 0.289062 L 40.1875 0.289062 L 40.1875 100.441406 L 0.609375 100.441406 Z M 0.609375 0.289062 " clip-rule="nonzero"/></clipPath><clipPath id="35eb7dad32"><rect x="0" width="41" y="0" height="101"/></clipPath><clipPath id="92d31c6288"><path d="M 77.828125 108.90625 L 119.609375 108.90625 L 119.609375 162.691406 L 77.828125 162.691406 Z M 77.828125 108.90625 " clip-rule="nonzero"/></clipPath><clipPath id="cd36d804e2"><path d="M 0.828125 0.90625 L 42.609375 0.90625 L 42.609375 54.691406 L 0.828125 54.691406 Z M 0.828125 0.90625 " clip-rule="nonzero"/></clipPath><clipPath id="46d5b593a4"><rect x="0" width="43" y="0" height="55"/></clipPath><clipPath id="b628f67ee1"><path d="M 40.445312 62.023438 L 80.027344 62.023438 L 80.027344 112.355469 L 40.445312 112.355469 Z M 40.445312 62.023438 " clip-rule="nonzero"/></clipPath><clipPath id="1a21e89fd6"><path d="M 0.445312 0.0234375 L 40.027344 0.0234375 L 40.027344 50.355469 L 0.445312 50.355469 Z M 0.445312 0.0234375 " clip-rule="nonzero"/></clipPath><clipPath id="f3f5ce4911"><rect x="0" width="41" y="0" height="51"/></clipPath><clipPath id="128155c463"><path d="M 0.867188 1 L 40.445312 1 L 40.445312 62.023438 L 0.867188 62.023438 Z M 0.867188 1 " clip-rule="nonzero"/></clipPath><clipPath id="c938227e90"><path d="M 0.867188 0 L 40.445312 0 L 40.445312 61.023438 L 0.867188 61.023438 Z M 0.867188 0 " clip-rule="nonzero"/></clipPath><clipPath id="8a1c4b740a"><rect x="0" width="41" y="0" height="62"/></clipPath><clipPath id="2934857eb7"><rect x="0" width="318" y="0" height="799"/></clipPath><clipPath id="726c7d4f04"><rect x="0" width="318" y="0" height="799"/></clipPath><mask id="1baed08035"><g filter="url(#2546bc6620)"><rect x="-144" width="1728" fill="#000000" y="-80.999999" height="971.999992" fill-opacity="0.49"/></g></mask><clipPath id="d2294f0fb5"><path d="M 0.558594 0.921875 L 162.320312 0.921875 L 162.320312 443 L 0.558594 443 Z M 0.558594 0.921875 " clip-rule="nonzero"/></clipPath><clipPath id="c5f2822102"><path d="M 0.644531 1.0625 L 41.597656 1.0625 L 41.597656 151.957031 L 0.644531 151.957031 Z M 0.644531 1.0625 " clip-rule="nonzero"/></clipPath><clipPath id="b2bfe784ae"><path d="M 0.644531 0.0625 L 41.597656 0.0625 L 41.597656 150.957031 L 0.644531 150.957031 Z M 0.644531 0.0625 " clip-rule="nonzero"/></clipPath><clipPath id="32756b513a"><rect x="0" width="42" y="0" height="151"/></clipPath><clipPath id="77c1fb93a0"><path d="M 40.488281 101.605469 L 80.355469 101.605469 L 80.355469 252.496094 L 40.488281 252.496094 Z M 40.488281 101.605469 " clip-rule="nonzero"/></clipPath><clipPath id="17efb2131f"><path d="M 0.488281 0.605469 L 40.355469 0.605469 L 40.355469 151.496094 L 0.488281 151.496094 Z M 0.488281 0.605469 " clip-rule="nonzero"/></clipPath><clipPath id="1c77af3761"><rect x="0" width="41" y="0" height="152"/></clipPath><clipPath id="da2ca63a6c"><path d="M 77.65625 200.980469 L 120.21875 200.980469 L 120.21875 252.496094 L 77.65625 252.496094 Z M 77.65625 200.980469 " clip-rule="nonzero"/></clipPath><clipPath id="78776e6a34"><path d="M 0.65625 0.980469 L 43.21875 0.980469 L 43.21875 52.496094 L 0.65625 52.496094 Z M 0.65625 0.980469 " clip-rule="nonzero"/></clipPath><clipPath id="91a1e9b4b4"><rect x="0" width="44" y="0" height="53"/></clipPath><clipPath id="9ecac7b2bc"><path d="M 120.21875 252.496094 L 160.085938 252.496094 L 160.085938 351.871094 L 120.21875 351.871094 Z M 120.21875 252.496094 " clip-rule="nonzero"/></clipPath><clipPath id="c787648cc9"><path d="M 0.21875 0.496094 L 40.085938 0.496094 L 40.085938 99.871094 L 0.21875 99.871094 Z M 0.21875 0.496094 " clip-rule="nonzero"/></clipPath><clipPath id="5090dc9132"><rect x="0" width="41" y="0" height="100"/></clipPath><clipPath id="81205b8280"><path d="M 82.570312 351.871094 L 122.4375 351.871094 L 122.4375 443 L 82.570312 443 Z M 82.570312 351.871094 " clip-rule="nonzero"/></clipPath><clipPath id="edff507d00"><path d="M 0.570312 0.871094 L 40.4375 0.871094 L 40.4375 92 L 0.570312 92 Z M 0.570312 0.871094 " clip-rule="nonzero"/></clipPath><clipPath id="26d7c3e953"><rect x="0" width="41" y="0" height="92"/></clipPath><clipPath id="e837065e66"><path d="M 120.21875 401.558594 L 162.300781 401.558594 L 162.300781 443 L 120.21875 443 Z M 120.21875 401.558594 " clip-rule="nonzero"/></clipPath><clipPath id="5918997cf8"><path d="M 0.21875 0.558594 L 42.300781 0.558594 L 42.300781 42 L 0.21875 42 Z M 0.21875 0.558594 " clip-rule="nonzero"/></clipPath><clipPath id="9ca6cf0abf"><rect x="0" width="43" y="0" height="42"/></clipPath><clipPath id="6506b5cd5c"><rect x="0" width="163" y="0" height="443"/></clipPath><clipPath id="f075817540"><rect x="0" width="163" y="0" height="443"/></clipPath><mask id="611ec9bb82"><g filter="url(#2546bc6620)"><rect x="-144" width="1728" fill="#000000" y="-80.999999" height="971.999992" fill-opacity="0.49"/></g></mask><clipPath id="5271b2e4b9"><path d="M 0.558594 0.921875 L 162.320312 0.921875 L 162.320312 431 L 0.558594 431 Z M 0.558594 0.921875 " clip-rule="nonzero"/></clipPath><clipPath id="19d511fecb"><path d="M 0.644531 1.0625 L 41.597656 1.0625 L 41.597656 151.957031 L 0.644531 151.957031 Z M 0.644531 1.0625 " clip-rule="nonzero"/></clipPath><clipPath id="9dc058487c"><path d="M 0.644531 0.0625 L 41.597656 0.0625 L 41.597656 150.957031 L 0.644531 150.957031 Z M 0.644531 0.0625 " clip-rule="nonzero"/></clipPath><clipPath id="77fb90f2fb"><rect x="0" width="42" y="0" height="151"/></clipPath><clipPath id="e1b8069286"><path d="M 40.488281 101.605469 L 80.355469 101.605469 L 80.355469 252.496094 L 40.488281 252.496094 Z M 40.488281 101.605469 " clip-rule="nonzero"/></clipPath><clipPath id="b7502a8de4"><path d="M 0.488281 0.605469 L 40.355469 0.605469 L 40.355469 151.496094 L 0.488281 151.496094 Z M 0.488281 0.605469 " clip-rule="nonzero"/></clipPath><clipPath id="872faf26d3"><rect x="0" width="41" y="0" height="152"/></clipPath><clipPath id="77ec9b82b6"><path d="M 77.65625 200.980469 L 120.21875 200.980469 L 120.21875 252.496094 L 77.65625 252.496094 Z M 77.65625 200.980469 " clip-rule="nonzero"/></clipPath><clipPath id="b964d8d61a"><path d="M 0.65625 0.980469 L 43.21875 0.980469 L 43.21875 52.496094 L 0.65625 52.496094 Z M 0.65625 0.980469 " clip-rule="nonzero"/></clipPath><clipPath id="44cf2a7dc6"><rect x="0" width="44" y="0" height="53"/></clipPath><clipPath id="bdbc184a0c"><path d="M 120.21875 252.496094 L 160.085938 252.496094 L 160.085938 351.871094 L 120.21875 351.871094 Z M 120.21875 252.496094 " clip-rule="nonzero"/></clipPath><clipPath id="f7e8b7b6cd"><path d="M 0.21875 0.496094 L 40.085938 0.496094 L 40.085938 99.871094 L 0.21875 99.871094 Z M 0.21875 0.496094 " clip-rule="nonzero"/></clipPath><clipPath id="7eb4a25ed3"><rect x="0" width="41" y="0" height="100"/></clipPath><clipPath id="3cd92d995d"><path d="M 82.570312 351.871094 L 122.4375 351.871094 L 122.4375 431 L 82.570312 431 Z M 82.570312 351.871094 " clip-rule="nonzero"/></clipPath><clipPath id="cd800c627d"><path d="M 0.570312 0.871094 L 40.4375 0.871094 L 40.4375 80 L 0.570312 80 Z M 0.570312 0.871094 " clip-rule="nonzero"/></clipPath><clipPath id="119e14aaa9"><rect x="0" width="41" y="0" height="80"/></clipPath><clipPath id="0ff7c8d492"><path d="M 120.21875 401.558594 L 162.300781 401.558594 L 162.300781 431 L 120.21875 431 Z M 120.21875 401.558594 " clip-rule="nonzero"/></clipPath><clipPath id="6f05488015"><path d="M 0.21875 0.558594 L 42.300781 0.558594 L 42.300781 30 L 0.21875 30 Z M 0.21875 0.558594 " clip-rule="nonzero"/></clipPath><clipPath id="562777a0eb"><rect x="0" width="43" y="0" height="30"/></clipPath><clipPath id="358eae289b"><rect x="0" width="163" y="0" height="431"/></clipPath><clipPath id="4bd7b60f23"><rect x="0" width="163" y="0" height="431"/></clipPath><mask id="897a644b7f"><g filter="url(#2546bc6620)"><rect x="-144" width="1728" fill="#000000" y="-80.999999" height="971.999992" fill-opacity="0.49"/></g></mask><clipPath id="9dcaa1985e"><path d="M 0.761719 0 L 160.359375 0 L 160.359375 371.28125 L 0.761719 371.28125 Z M 0.761719 0 " clip-rule="nonzero"/></clipPath><clipPath id="f5297f570e"><path d="M 119.371094 220.171875 L 160.324219 220.171875 L 160.324219 371.0625 L 119.371094 371.0625 Z M 119.371094 220.171875 " clip-rule="nonzero"/></clipPath><clipPath id="33383f61f4"><path d="M 0.371094 0.171875 L 41.324219 0.171875 L 41.324219 151.0625 L 0.371094 151.0625 Z M 0.371094 0.171875 " clip-rule="nonzero"/></clipPath><clipPath id="152409e6db"><rect x="0" width="42" y="0" height="152"/></clipPath><clipPath id="b4ed97c95c"><path d="M 80.613281 119.628906 L 120.480469 119.628906 L 120.480469 270.519531 L 80.613281 270.519531 Z M 80.613281 119.628906 " clip-rule="nonzero"/></clipPath><clipPath id="7060a964f4"><path d="M 0.613281 0.628906 L 40.480469 0.628906 L 40.480469 151.519531 L 0.613281 151.519531 Z M 0.613281 0.628906 " clip-rule="nonzero"/></clipPath><clipPath id="48bf0f0fe2"><rect x="0" width="41" y="0" height="152"/></clipPath><clipPath id="723db0ffa8"><path d="M 40.746094 119.628906 L 83.3125 119.628906 L 83.3125 171.144531 L 40.746094 171.144531 Z M 40.746094 119.628906 " clip-rule="nonzero"/></clipPath><clipPath id="410de603ae"><path d="M 0.746094 0.628906 L 43.3125 0.628906 L 43.3125 52.144531 L 0.746094 52.144531 Z M 0.746094 0.628906 " clip-rule="nonzero"/></clipPath><clipPath id="bfcbef9261"><rect x="0" width="44" y="0" height="53"/></clipPath><clipPath id="2050951941"><path d="M 0.882812 20.253906 L 40.746094 20.253906 L 40.746094 119.628906 L 0.882812 119.628906 Z M 0.882812 20.253906 " clip-rule="nonzero"/></clipPath><clipPath id="ff6ee54ddc"><path d="M 0.882812 0.253906 L 40.746094 0.253906 L 40.746094 99.628906 L 0.882812 99.628906 Z M 0.882812 0.253906 " clip-rule="nonzero"/></clipPath><clipPath id="fe3ef0c47a"><rect x="0" width="41" y="0" height="100"/></clipPath><clipPath id="977d74d300"><path d="M 38.53125 0 L 78.398438 0 L 78.398438 20.253906 L 38.53125 20.253906 Z M 38.53125 0 " clip-rule="nonzero"/></clipPath><clipPath id="2d442952d6"><path d="M 0.53125 0 L 40.398438 0 L 40.398438 20.253906 L 0.53125 20.253906 Z M 0.53125 0 " clip-rule="nonzero"/></clipPath><clipPath id="154b961d51"><rect x="0" width="41" y="0" height="21"/></clipPath><clipPath id="fb8a70055b"><rect x="0" width="161" y="0" height="372"/></clipPath><clipPath id="7abbbe0451"><rect x="0" width="161" y="0" height="372"/></clipPath><mask id="ee9bcd2e4f"><g filter="url(#2546bc6620)"><rect x="-144" width="1728" fill="#000000" y="-80.999999" height="971.999992" fill-opacity="0.49"/></g></mask><clipPath id="2f873dd990"><path d="M 0.761719 0 L 160.359375 0 L 160.359375 359.28125 L 0.761719 359.28125 Z M 0.761719 0 " clip-rule="nonzero"/></clipPath><clipPath id="6e15cad39b"><path d="M 119.371094 208.171875 L 160.324219 208.171875 L 160.324219 359.0625 L 119.371094 359.0625 Z M 119.371094 208.171875 " clip-rule="nonzero"/></clipPath><clipPath id="09a8524ed1"><path d="M 0.371094 0.171875 L 41.324219 0.171875 L 41.324219 151.0625 L 0.371094 151.0625 Z M 0.371094 0.171875 " clip-rule="nonzero"/></clipPath><clipPath id="6aebee95bd"><rect x="0" width="42" y="0" height="152"/></clipPath><clipPath id="3243260f81"><path d="M 80.613281 107.628906 L 120.480469 107.628906 L 120.480469 258.519531 L 80.613281 258.519531 Z M 80.613281 107.628906 " clip-rule="nonzero"/></clipPath><clipPath id="4bb6d3d59c"><path d="M 0.613281 0.628906 L 40.480469 0.628906 L 40.480469 151.519531 L 0.613281 151.519531 Z M 0.613281 0.628906 " clip-rule="nonzero"/></clipPath><clipPath id="88d81e21af"><rect x="0" width="41" y="0" height="152"/></clipPath><clipPath id="22e57740ba"><path d="M 40.746094 107.628906 L 83.3125 107.628906 L 83.3125 159.144531 L 40.746094 159.144531 Z M 40.746094 107.628906 " clip-rule="nonzero"/></clipPath><clipPath id="011c7e1da4"><path d="M 0.746094 0.628906 L 43.3125 0.628906 L 43.3125 52.144531 L 0.746094 52.144531 Z M 0.746094 0.628906 " clip-rule="nonzero"/></clipPath><clipPath id="f3433b771a"><rect x="0" width="44" y="0" height="53"/></clipPath><clipPath id="c0bc4a5dd3"><path d="M 0.882812 8.253906 L 40.746094 8.253906 L 40.746094 107.628906 L 0.882812 107.628906 Z M 0.882812 8.253906 " clip-rule="nonzero"/></clipPath><clipPath id="46ed345d3d"><path d="M 0.882812 0.253906 L 40.746094 0.253906 L 40.746094 99.628906 L 0.882812 99.628906 Z M 0.882812 0.253906 " clip-rule="nonzero"/></clipPath><clipPath id="f2e90dd3ac"><rect x="0" width="41" y="0" height="100"/></clipPath><clipPath id="05c8526779"><path d="M 38.53125 0 L 78.398438 0 L 78.398438 8.253906 L 38.53125 8.253906 Z M 38.53125 0 " clip-rule="nonzero"/></clipPath><clipPath id="f28e2009ee"><path d="M 0.53125 0 L 40.398438 0 L 40.398438 8.253906 L 0.53125 8.253906 Z M 0.53125 0 " clip-rule="nonzero"/></clipPath><clipPath id="80de544c99"><rect x="0" width="41" y="0" height="9"/></clipPath><clipPath id="6aaedebeca"><rect x="0" width="161" y="0" height="360"/></clipPath><clipPath id="c561543676"><rect x="0" width="161" y="0" height="360"/></clipPath><clipPath id="b1be4ade96"><rect x="0" width="1082" y="0" height="130"/></clipPath><mask id="17d83af15f"><g filter="url(#2546bc6620)"><rect x="-144" width="1728" fill="#000000" y="-80.999999" height="971.999992" fill-opacity="0.49"/></g></mask><clipPath id="f268c9d1a2"><path d="M 0 0 L 202.558594 0 L 202.558594 630 L 0 630 Z M 0 0 " clip-rule="nonzero"/></clipPath><clipPath id="d0932bfac0"><path d="M 0 0.03125 L 1.996094 0.03125 L 1.996094 150.921875 L 0 150.921875 Z M 0 0.03125 " clip-rule="nonzero"/></clipPath><clipPath id="8a76f1ef9f"><path d="M 0 0.03125 L 1.996094 0.03125 L 1.996094 150.921875 L 0 150.921875 Z M 0 0.03125 " clip-rule="nonzero"/></clipPath><clipPath id="1aa9947b0d"><rect x="0" width="2" y="0" height="151"/></clipPath><clipPath id="4f1611e2e6"><path d="M 0.886719 100.570312 L 40.753906 100.570312 L 40.753906 251.464844 L 0.886719 251.464844 Z M 0.886719 100.570312 " clip-rule="nonzero"/></clipPath><clipPath id="d5569bad66"><path d="M 0.886719 0.570312 L 40.753906 0.570312 L 40.753906 151.464844 L 0.886719 151.464844 Z M 0.886719 0.570312 " clip-rule="nonzero"/></clipPath><clipPath id="8f14dfc179"><rect x="0" width="41" y="0" height="152"/></clipPath><clipPath id="d8d9cd1b20"><path d="M 38.054688 199.949219 L 80.617188 199.949219 L 80.617188 251.464844 L 38.054688 251.464844 Z M 38.054688 199.949219 " clip-rule="nonzero"/></clipPath><clipPath id="2b2974d97b"><path d="M 0.0546875 0.949219 L 42.617188 0.949219 L 42.617188 52.464844 L 0.0546875 52.464844 Z M 0.0546875 0.949219 " clip-rule="nonzero"/></clipPath><clipPath id="19a4b216fb"><rect x="0" width="43" y="0" height="53"/></clipPath><clipPath id="75037c0b5b"><path d="M 80.617188 251.464844 L 120.484375 251.464844 L 120.484375 350.839844 L 80.617188 350.839844 Z M 80.617188 251.464844 " clip-rule="nonzero"/></clipPath><clipPath id="a17858ced7"><path d="M 0.617188 0.464844 L 40.484375 0.464844 L 40.484375 99.839844 L 0.617188 99.839844 Z M 0.617188 0.464844 " clip-rule="nonzero"/></clipPath><clipPath id="3b1d010550"><rect x="0" width="41" y="0" height="100"/></clipPath><clipPath id="0548820054"><path d="M 42.96875 350.839844 L 82.835938 350.839844 L 82.835938 450.214844 L 42.96875 450.214844 Z M 42.96875 350.839844 " clip-rule="nonzero"/></clipPath><clipPath id="bcfafad6c0"><path d="M 0.96875 0.839844 L 40.835938 0.839844 L 40.835938 100.214844 L 0.96875 100.214844 Z M 0.96875 0.839844 " clip-rule="nonzero"/></clipPath><clipPath id="07315784d9"><rect x="0" width="41" y="0" height="101"/></clipPath><clipPath id="4bf12cd077"><path d="M 80.617188 400.527344 L 122.699219 400.527344 L 122.699219 450.214844 L 80.617188 450.214844 Z M 80.617188 400.527344 " clip-rule="nonzero"/></clipPath><clipPath id="97d3b2bbf6"><path d="M 0.617188 0.527344 L 42.699219 0.527344 L 42.699219 50.214844 L 0.617188 50.214844 Z M 0.617188 0.527344 " clip-rule="nonzero"/></clipPath><clipPath id="9bacf6ebd2"><rect x="0" width="43" y="0" height="51"/></clipPath><clipPath id="f1405ceb8e"><path d="M 122.699219 450.214844 L 162.566406 450.214844 L 162.566406 499.902344 L 122.699219 499.902344 Z M 122.699219 450.214844 " clip-rule="nonzero"/></clipPath><clipPath id="6c7f45e2c2"><path d="M 0.699219 0.214844 L 40.566406 0.214844 L 40.566406 49.902344 L 0.699219 49.902344 Z M 0.699219 0.214844 " clip-rule="nonzero"/></clipPath><clipPath id="a4a7db2c08"><rect x="0" width="41" y="0" height="50"/></clipPath><clipPath id="b40056db2c"><path d="M 162.566406 499.902344 L 202.433594 499.902344 L 202.433594 549.589844 L 162.566406 549.589844 Z M 162.566406 499.902344 " clip-rule="nonzero"/></clipPath><clipPath id="4536d276e2"><path d="M 0.566406 0.902344 L 40.433594 0.902344 L 40.433594 50.589844 L 0.566406 50.589844 Z M 0.566406 0.902344 " clip-rule="nonzero"/></clipPath><clipPath id="583642df43"><rect x="0" width="41" y="0" height="51"/></clipPath><clipPath id="9b9a77923e"><path d="M 120.484375 549.589844 L 160.351562 549.589844 L 160.351562 630 L 120.484375 630 Z M 120.484375 549.589844 " clip-rule="nonzero"/></clipPath><clipPath id="2a3cc69d53"><path d="M 0.484375 0.589844 L 40.351562 0.589844 L 40.351562 81 L 0.484375 81 Z M 0.484375 0.589844 " clip-rule="nonzero"/></clipPath><clipPath id="acc597c929"><rect x="0" width="41" y="0" height="81"/></clipPath><clipPath id="059c927ea4"><rect x="0" width="203" y="0" height="630"/></clipPath><clipPath id="30c0f24617"><rect x="0" width="203" y="0" height="630"/></clipPath><mask id="666fdcbe21"><g filter="url(#2546bc6620)"><rect x="-144" width="1728" fill="#000000" y="-80.999999" height="971.999992" fill-opacity="0.49"/></g></mask><clipPath id="088514a51a"><path d="M 0 0 L 214.558594 0 L 214.558594 618 L 0 618 Z M 0 0 " clip-rule="nonzero"/></clipPath><clipPath id="752b5369e2"><path d="M 0 0.03125 L 13.996094 0.03125 L 13.996094 150.921875 L 0 150.921875 Z M 0 0.03125 " clip-rule="nonzero"/></clipPath><clipPath id="e662a3e9a1"><path d="M 0 0.03125 L 13.996094 0.03125 L 13.996094 150.921875 L 0 150.921875 Z M 0 0.03125 " clip-rule="nonzero"/></clipPath><clipPath id="8b75bc0b8a"><rect x="0" width="14" y="0" height="151"/></clipPath><clipPath id="86de123754"><path d="M 12.886719 100.570312 L 52.753906 100.570312 L 52.753906 251.464844 L 12.886719 251.464844 Z M 12.886719 100.570312 " clip-rule="nonzero"/></clipPath><clipPath id="bb184fb3e2"><path d="M 0.886719 0.570312 L 40.753906 0.570312 L 40.753906 151.464844 L 0.886719 151.464844 Z M 0.886719 0.570312 " clip-rule="nonzero"/></clipPath><clipPath id="bd3b66901e"><rect x="0" width="41" y="0" height="152"/></clipPath><clipPath id="98459a0da1"><path d="M 50.054688 199.949219 L 92.617188 199.949219 L 92.617188 251.464844 L 50.054688 251.464844 Z M 50.054688 199.949219 " clip-rule="nonzero"/></clipPath><clipPath id="9a9a86339b"><path d="M 0.0546875 0.949219 L 42.617188 0.949219 L 42.617188 52.464844 L 0.0546875 52.464844 Z M 0.0546875 0.949219 " clip-rule="nonzero"/></clipPath><clipPath id="18fac25a54"><rect x="0" width="43" y="0" height="53"/></clipPath><clipPath id="ba9b090411"><path d="M 92.617188 251.464844 L 132.484375 251.464844 L 132.484375 350.839844 L 92.617188 350.839844 Z M 92.617188 251.464844 " clip-rule="nonzero"/></clipPath><clipPath id="a34c22fe2e"><path d="M 0.617188 0.464844 L 40.484375 0.464844 L 40.484375 99.839844 L 0.617188 99.839844 Z M 0.617188 0.464844 " clip-rule="nonzero"/></clipPath><clipPath id="5c71be5a73"><rect x="0" width="41" y="0" height="100"/></clipPath><clipPath id="c4556466da"><path d="M 54.96875 350.839844 L 94.835938 350.839844 L 94.835938 450.214844 L 54.96875 450.214844 Z M 54.96875 350.839844 " clip-rule="nonzero"/></clipPath><clipPath id="d23319a287"><path d="M 0.96875 0.839844 L 40.835938 0.839844 L 40.835938 100.214844 L 0.96875 100.214844 Z M 0.96875 0.839844 " clip-rule="nonzero"/></clipPath><clipPath id="063c52f3e3"><rect x="0" width="41" y="0" height="101"/></clipPath><clipPath id="32901737d3"><path d="M 92.617188 400.527344 L 134.699219 400.527344 L 134.699219 450.214844 L 92.617188 450.214844 Z M 92.617188 400.527344 " clip-rule="nonzero"/></clipPath><clipPath id="37b23d108b"><path d="M 0.617188 0.527344 L 42.699219 0.527344 L 42.699219 50.214844 L 0.617188 50.214844 Z M 0.617188 0.527344 " clip-rule="nonzero"/></clipPath><clipPath id="f0ab95d9f9"><rect x="0" width="43" y="0" height="51"/></clipPath><clipPath id="63b1d5c4ca"><path d="M 134.699219 450.214844 L 174.566406 450.214844 L 174.566406 499.902344 L 134.699219 499.902344 Z M 134.699219 450.214844 " clip-rule="nonzero"/></clipPath><clipPath id="4ca7895af2"><path d="M 0.699219 0.214844 L 40.566406 0.214844 L 40.566406 49.902344 L 0.699219 49.902344 Z M 0.699219 0.214844 " clip-rule="nonzero"/></clipPath><clipPath id="2679bcbef1"><rect x="0" width="41" y="0" height="50"/></clipPath><clipPath id="1f0890ec70"><path d="M 174.566406 499.902344 L 214.433594 499.902344 L 214.433594 549.589844 L 174.566406 549.589844 Z M 174.566406 499.902344 " clip-rule="nonzero"/></clipPath><clipPath id="f7091e3fd6"><path d="M 0.566406 0.902344 L 40.433594 0.902344 L 40.433594 50.589844 L 0.566406 50.589844 Z M 0.566406 0.902344 " clip-rule="nonzero"/></clipPath><clipPath id="470f41a944"><rect x="0" width="41" y="0" height="51"/></clipPath><clipPath id="ce2622bd0e"><path d="M 132.484375 549.589844 L 172.351562 549.589844 L 172.351562 618 L 132.484375 618 Z M 132.484375 549.589844 " clip-rule="nonzero"/></clipPath><clipPath id="db9087a8e1"><path d="M 0.484375 0.589844 L 40.351562 0.589844 L 40.351562 69 L 0.484375 69 Z M 0.484375 0.589844 " clip-rule="nonzero"/></clipPath><clipPath id="58597ab220"><rect x="0" width="41" y="0" height="69"/></clipPath><clipPath id="e8dc984eff"><rect x="0" width="215" y="0" height="618"/></clipPath><clipPath id="6fcd463bc5"><rect x="0" width="215" y="0" height="618"/></clipPath></defs><rect x="-144" width="1728" fill="#ffffff" y="-80.999999" height="971.999992" fill-opacity="1"/><rect x="-144" width="1728" fill="#ffffff" y="-80.999999" height="971.999992" fill-opacity="1"/><g mask="url(#2cbfdd3666)"><g transform="matrix(1, 0, 0, 1, 302, 0.000000000000039746)"><g clip-path="url(#1d4961f286)"><g clip-path="url(#6c1a76eb1f)"><g transform="matrix(1, 0, 0, 1, 0, 0.000000000000039746)"><g clip-path="url(#a6566f9743)"><g clip-path="url(#6493ea016b)"><g transform="matrix(1, 0, 0, 1, 276, 659)"><g clip-path="url(#54d1e1b3e9)"><g clip-path="url(#df32bfc044)"><path fill="#bd1f2d" d="M 41.492188 151 L 0.832031 151 L 0.832031 0.109375 L 41.492188 0.109375 Z M 41.492188 151 " fill-opacity="1" fill-rule="nonzero"/></g></g></g></g><g clip-path="url(#6b9435d837)"><g transform="matrix(1, 0, 0, 1, 238, 558)"><g clip-path="url(#48fe9a452c)"><g clip-path="url(#e7ae4ce141)"><path fill="#bd1f2d" d="M 39.929688 151.457031 L 0.351562 151.457031 L 0.351562 0.554688 L 39.929688 0.554688 Z M 39.929688 151.457031 " fill-opacity="1" fill-rule="nonzero"/></g></g></g></g><g clip-path="url(#fbfce7d9e0)"><g transform="matrix(1, 0, 0, 1, 198, 558)"><g clip-path="url(#50099cbca3)"><g clip-path="url(#7ef207eb40)"><path fill="#bd1f2d" d="M 43.03125 52.082031 L 0.769531 52.082031 L 0.769531 0.578125 L 43.03125 0.578125 Z M 43.03125 52.082031 " fill-opacity="1" fill-rule="nonzero"/></g></g></g></g><g clip-path="url(#32d5a176c2)"><g transform="matrix(1, 0, 0, 1, 159, 459)"><g clip-path="url(#7a888dff96)"><g clip-path="url(#742a7b9817)"><path fill="#bd1f2d" d="M 39.769531 99.566406 L 0.1875 99.566406 L 0.1875 0.148438 L 39.769531 0.148438 Z M 39.769531 99.566406 " fill-opacity="1" fill-rule="nonzero"/></g></g></g></g><g clip-path="url(#c51d9f6f03)"><g transform="matrix(1, 0, 0, 1, 196, 359)"><g clip-path="url(#fa3e7cbbbc)"><g clip-path="url(#36957168f2)"><path fill="#bd1f2d" d="M 40.148438 100.191406 L 0.570312 100.191406 L 0.570312 0.773438 L 40.148438 0.773438 Z M 40.148438 100.191406 " fill-opacity="1" fill-rule="nonzero"/></g></g></g></g><g clip-path="url(#19079a8f71)"><g transform="matrix(1, 0, 0, 1, 156, 359)"><g clip-path="url(#7cfe255cd1)"><g clip-path="url(#f75de7d4cb)"><path fill="#bd1f2d" d="M 42.769531 50.503906 L 0.988281 50.503906 L 0.988281 0.886719 L 42.769531 0.886719 Z M 42.769531 50.503906 " fill-opacity="1" fill-rule="nonzero"/></g></g></g></g><g clip-path="url(#9bebb5de86)"><g transform="matrix(1, 0, 0, 1, 117, 310)"><g clip-path="url(#2aec00e514)"><g clip-path="url(#095dea58aa)"><path fill="#bd1f2d" d="M 39.988281 49.816406 L 0.40625 49.816406 L 0.40625 0.183594 L 39.988281 0.183594 Z M 39.988281 49.816406 " fill-opacity="1" fill-rule="nonzero"/></g></g></g></g><g clip-path="url(#5cba6517b5)"><g transform="matrix(1, 0, 0, 1, 77, 260)"><g clip-path="url(#782a9f62fb)"><g clip-path="url(#0eccd395a1)"><path fill="#bd1f2d" d="M 40.40625 50.128906 L 0.828125 50.128906 L 0.828125 0.496094 L 40.40625 0.496094 Z M 40.40625 50.128906 " fill-opacity="1" fill-rule="nonzero"/></g></g></g></g><g clip-path="url(#bc9376dddb)"><g transform="matrix(1, 0, 0, 1, 119, 160)"><g clip-path="url(#418c846c0d)"><g clip-path="url(#5546c171ac)"><path fill="#bd1f2d" d="M 40.1875 100.441406 L 0.609375 100.441406 L 0.609375 0.25 L 40.1875 0.25 Z M 40.1875 100.441406 " fill-opacity="1" fill-rule="nonzero"/></g></g></g></g><g clip-path="url(#941a919570)"><g transform="matrix(1, 0, 0, 1, 77, 107)"><g clip-path="url(#3e0b8b7e0b)"><g clip-path="url(#af96009f81)"><path fill="#bd1f2d" d="M 42.609375 54.691406 L 0.828125 54.691406 L 0.828125 0.832031 L 42.609375 0.832031 Z M 42.609375 54.691406 " fill-opacity="1" fill-rule="nonzero"/></g></g></g></g><g clip-path="url(#29734aa506)"><g transform="matrix(1, 0, 0, 1, 40, 61)"><g clip-path="url(#c6f2a3a1d7)"><g clip-path="url(#38a42092ff)"><path fill="#bd1f2d" d="M 40.027344 50.355469 L 0.445312 50.355469 L 0.445312 -0.046875 L 40.027344 -0.046875 Z M 40.027344 50.355469 " fill-opacity="1" fill-rule="nonzero"/></g></g></g></g><g clip-path="url(#e326a2b069)"><g transform="matrix(1, 0, 0, 1, 0, 0.000000000000039746)"><g clip-path="url(#2ebb93fa98)"><g clip-path="url(#6b7487394c)"><path fill="#bd1f2d" d="M 40.445312 61.023438 L 0.867188 61.023438 L 0.867188 -0.0507812 L 40.445312 -0.0507812 Z M 40.445312 61.023438 " fill-opacity="1" fill-rule="nonzero"/></g></g></g></g></g></g></g></g></g></g><g mask="url(#d3cebaf3de)"><g transform="matrix(1, 0, 0, 1, 1193, 0.000000000000039746)"><g clip-path="url(#f5110e4a13)"><g clip-path="url(#9d817b4f46)"><g transform="matrix(1, 0, 0, 1, 0, 0.000000000000039746)"><g clip-path="url(#c36da6df2a)"><g clip-path="url(#8800f1465f)"><g transform="matrix(1, 0, 0, 1, 0, 0.000000000000039746)"><g clip-path="url(#2f2915d8e9)"><g clip-path="url(#3491f4790d)"><path fill="#bd1f2d" d="M 0.546875 -12 L 41.5 -12 L 41.5 138.855469 L 0.546875 138.855469 Z M 0.546875 -12 " fill-opacity="1" fill-rule="nonzero"/></g></g></g></g><g clip-path="url(#4b451ed293)"><g transform="matrix(1, 0, 0, 1, 40, 88)"><g clip-path="url(#abd7ef2626)"><g clip-path="url(#161b6d7381)"><path fill="#bd1f2d" d="M 0.390625 0.542969 L 40.257812 0.542969 L 40.257812 151.441406 L 0.390625 151.441406 Z M 0.390625 0.542969 " fill-opacity="1" fill-rule="nonzero"/></g></g></g></g><g clip-path="url(#eb4ec6b428)"><g transform="matrix(1, 0, 0, 1, 77, 187)"><g clip-path="url(#98f7c723f9)"><g clip-path="url(#69aa7edb37)"><path fill="#bd1f2d" d="M 0.558594 0.917969 L 43.125 0.917969 L 43.125 52.460938 L 0.558594 52.460938 Z M 0.558594 0.917969 " fill-opacity="1" fill-rule="nonzero"/></g></g></g></g><g clip-path="url(#32a6e33bf5)"><g transform="matrix(1, 0, 0, 1, 120, 239)"><g clip-path="url(#8f4bf5e771)"><g clip-path="url(#e8bdbb4e9c)"><path fill="#bd1f2d" d="M 0.125 0.433594 L 39.988281 0.433594 L 39.988281 99.789062 L 0.125 99.789062 Z M 0.125 0.433594 " fill-opacity="1" fill-rule="nonzero"/></g></g></g></g><g clip-path="url(#a21c976e3c)"><g transform="matrix(1, 0, 0, 1, 82, 338)"><g clip-path="url(#6400e716f9)"><g clip-path="url(#f8b6706006)"><path fill="#bd1f2d" d="M 0.472656 0.808594 L 40.339844 0.808594 L 40.339844 100.164062 L 0.472656 100.164062 Z M 0.472656 0.808594 " fill-opacity="1" fill-rule="nonzero"/></g></g></g></g><g clip-path="url(#f8f14fc77a)"><g transform="matrix(1, 0, 0, 1, 120, 388)"><g clip-path="url(#d6a39be73e)"><g clip-path="url(#fa148bbef9)"><path fill="#bd1f2d" d="M 0.125 0.496094 L 42.207031 0.496094 L 42.207031 50.140625 L 0.125 50.140625 Z M 0.125 0.496094 " fill-opacity="1" fill-rule="nonzero"/></g></g></g></g><g clip-path="url(#e3aab7fd51)"><g transform="matrix(1, 0, 0, 1, 162, 438)"><g clip-path="url(#0210b19a6d)"><g clip-path="url(#853f1e58ac)"><path fill="#bd1f2d" d="M 0.207031 0.183594 L 40.070312 0.183594 L 40.070312 49.859375 L 0.207031 49.859375 Z M 0.207031 0.183594 " fill-opacity="1" fill-rule="nonzero"/></g></g></g></g><g clip-path="url(#b390a130a6)"><g transform="matrix(1, 0, 0, 1, 202, 487)"><g clip-path="url(#1ca2331044)"><g clip-path="url(#1a2badfe36)"><path fill="#bd1f2d" d="M 0.0703125 0.871094 L 39.9375 0.871094 L 39.9375 50.546875 L 0.0703125 50.546875 Z M 0.0703125 0.871094 " fill-opacity="1" fill-rule="nonzero"/></g></g></g></g><g clip-path="url(#fbd6920033)"><g transform="matrix(1, 0, 0, 1, 159, 537)"><g clip-path="url(#28989004c6)"><g clip-path="url(#e600be48ef)"><path fill="#bd1f2d" d="M 0.988281 0.558594 L 40.855469 0.558594 L 40.855469 100.691406 L 0.988281 100.691406 Z M 0.988281 0.558594 " fill-opacity="1" fill-rule="nonzero"/></g></g></g></g><g clip-path="url(#6ea848f916)"><g transform="matrix(1, 0, 0, 1, 199, 636)"><g clip-path="url(#e1b9d7a408)"><g clip-path="url(#034f7ce2a4)"><path fill="#bd1f2d" d="M 0.855469 0.308594 L 42.9375 0.308594 L 42.9375 54.0625 L 0.855469 54.0625 Z M 0.855469 0.308594 " fill-opacity="1" fill-rule="nonzero"/></g></g></g></g><g clip-path="url(#052c34151f)"><g transform="matrix(1, 0, 0, 1, 239, 686)"><g clip-path="url(#ba540f7f35)"><g clip-path="url(#963eaf6729)"><path fill="#bd1f2d" d="M 0.722656 0.644531 L 40.585938 0.644531 L 40.585938 50.941406 L 0.722656 50.941406 Z M 0.722656 0.644531 " fill-opacity="1" fill-rule="nonzero"/></g></g></g></g></g></g></g></g></g></g><g mask="url(#9a0d8bcb21)"><g transform="matrix(1, 0, 0, 1, 1205, 0.000000000000039746)"><g clip-path="url(#8fb3b04e3c)"><g clip-path="url(#e722af3520)"><g transform="matrix(1, 0, 0, 1, 0, 0.000000000000039746)"><g clip-path="url(#35bdb77605)"><g clip-path="url(#8af50b1cc1)"><g transform="matrix(1, 0, 0, 1, 0, 0.000000000000039746)"><g clip-path="url(#958df919b5)"><g clip-path="url(#ea0f0dbd95)"><path fill="#bd1f2d" d="M 0.546875 0 L 41.5 0 L 41.5 150.855469 L 0.546875 150.855469 Z M 0.546875 0 " fill-opacity="1" fill-rule="nonzero"/></g></g></g></g><g clip-path="url(#ff4b2dab12)"><g transform="matrix(1, 0, 0, 1, 40, 100)"><g clip-path="url(#7375b2b501)"><g clip-path="url(#6b6614bc44)"><path fill="#bd1f2d" d="M 0.390625 0.542969 L 40.257812 0.542969 L 40.257812 151.441406 L 0.390625 151.441406 Z M 0.390625 0.542969 " fill-opacity="1" fill-rule="nonzero"/></g></g></g></g><g clip-path="url(#df0d2e5ebf)"><g transform="matrix(1, 0, 0, 1, 77, 199)"><g clip-path="url(#1153c1ac03)"><g clip-path="url(#b751f4eb90)"><path fill="#bd1f2d" d="M 0.558594 0.917969 L 43.125 0.917969 L 43.125 52.460938 L 0.558594 52.460938 Z M 0.558594 0.917969 " fill-opacity="1" fill-rule="nonzero"/></g></g></g></g><g clip-path="url(#d87c9a768f)"><g transform="matrix(1, 0, 0, 1, 120, 251)"><g clip-path="url(#440a1095d5)"><g clip-path="url(#1a719688d3)"><path fill="#bd1f2d" d="M 0.125 0.433594 L 39.988281 0.433594 L 39.988281 99.789062 L 0.125 99.789062 Z M 0.125 0.433594 " fill-opacity="1" fill-rule="nonzero"/></g></g></g></g><g clip-path="url(#dd77df4013)"><g transform="matrix(1, 0, 0, 1, 82, 350)"><g clip-path="url(#c295a28823)"><g clip-path="url(#6c51ab9584)"><path fill="#bd1f2d" d="M 0.472656 0.808594 L 40.339844 0.808594 L 40.339844 100.164062 L 0.472656 100.164062 Z M 0.472656 0.808594 " fill-opacity="1" fill-rule="nonzero"/></g></g></g></g><g clip-path="url(#f58416c350)"><g transform="matrix(1, 0, 0, 1, 120, 400)"><g clip-path="url(#911d7a3052)"><g clip-path="url(#2083cba8cb)"><path fill="#bd1f2d" d="M 0.125 0.496094 L 42.207031 0.496094 L 42.207031 50.140625 L 0.125 50.140625 Z M 0.125 0.496094 " fill-opacity="1" fill-rule="nonzero"/></g></g></g></g><g clip-path="url(#7ce4c416a4)"><g transform="matrix(1, 0, 0, 1, 162, 450)"><g clip-path="url(#e9fff624d7)"><g clip-path="url(#3924ab8140)"><path fill="#bd1f2d" d="M 0.207031 0.183594 L 40.070312 0.183594 L 40.070312 49.859375 L 0.207031 49.859375 Z M 0.207031 0.183594 " fill-opacity="1" fill-rule="nonzero"/></g></g></g></g><g clip-path="url(#6becd74f2c)"><g transform="matrix(1, 0, 0, 1, 202, 499)"><g clip-path="url(#68aaa7303b)"><g clip-path="url(#df332b14f0)"><path fill="#bd1f2d" d="M 0.0703125 0.871094 L 39.9375 0.871094 L 39.9375 50.546875 L 0.0703125 50.546875 Z M 0.0703125 0.871094 " fill-opacity="1" fill-rule="nonzero"/></g></g></g></g><g clip-path="url(#8c9e7173f9)"><g transform="matrix(1, 0, 0, 1, 159, 549)"><g clip-path="url(#919300baea)"><g clip-path="url(#064c147395)"><path fill="#bd1f2d" d="M 0.988281 0.558594 L 40.855469 0.558594 L 40.855469 100.691406 L 0.988281 100.691406 Z M 0.988281 0.558594 " fill-opacity="1" fill-rule="nonzero"/></g></g></g></g><g clip-path="url(#95d5ddd1b6)"><g transform="matrix(1, 0, 0, 1, 199, 648)"><g clip-path="url(#d82d61b4ec)"><g clip-path="url(#17464ea02a)"><path fill="#bd1f2d" d="M 0.855469 0.308594 L 42.9375 0.308594 L 42.9375 54.0625 L 0.855469 54.0625 Z M 0.855469 0.308594 " fill-opacity="1" fill-rule="nonzero"/></g></g></g></g></g></g></g></g></g></g><g mask="url(#702e808b1a)"><g transform="matrix(1, 0, 0, 1, 314, 11)"><g clip-path="url(#726c7d4f04)"><g clip-path="url(#facccca97d)"><g transform="matrix(1, 0, 0, 1, 0, 0.00000000000003908)"><g clip-path="url(#2934857eb7)"><g clip-path="url(#a9aae47554)"><g transform="matrix(1, 0, 0, 1, 276, 660)"><g clip-path="url(#c9f20dd0a8)"><g clip-path="url(#b11673747f)"><path fill="#bd1f2d" d="M 41.492188 151 L 0.832031 151 L 0.832031 0.109375 L 41.492188 0.109375 Z M 41.492188 151 " fill-opacity="1" fill-rule="nonzero"/></g></g></g></g><g clip-path="url(#8eb990f3e6)"><g transform="matrix(1, 0, 0, 1, 238, 559)"><g clip-path="url(#f39e626904)"><g clip-path="url(#d9f2e59da0)"><path fill="#bd1f2d" d="M 39.929688 151.457031 L 0.351562 151.457031 L 0.351562 0.554688 L 39.929688 0.554688 Z M 39.929688 151.457031 " fill-opacity="1" fill-rule="nonzero"/></g></g></g></g><g clip-path="url(#061289e790)"><g transform="matrix(1, 0, 0, 1, 198, 559)"><g clip-path="url(#66b951e5b6)"><g clip-path="url(#8745afc604)"><path fill="#bd1f2d" d="M 43.03125 52.082031 L 0.769531 52.082031 L 0.769531 0.578125 L 43.03125 0.578125 Z M 43.03125 52.082031 " fill-opacity="1" fill-rule="nonzero"/></g></g></g></g><g clip-path="url(#69c5903cbe)"><g transform="matrix(1, 0, 0, 1, 159, 460)"><g clip-path="url(#42165d7e1e)"><g clip-path="url(#ed74096dc7)"><path fill="#bd1f2d" d="M 39.769531 99.566406 L 0.1875 99.566406 L 0.1875 0.148438 L 39.769531 0.148438 Z M 39.769531 99.566406 " fill-opacity="1" fill-rule="nonzero"/></g></g></g></g><g clip-path="url(#553900f241)"><g transform="matrix(1, 0, 0, 1, 196, 360)"><g clip-path="url(#8026cc3ebc)"><g clip-path="url(#57cd9c806b)"><path fill="#bd1f2d" d="M 40.148438 100.191406 L 0.570312 100.191406 L 0.570312 0.773438 L 40.148438 0.773438 Z M 40.148438 100.191406 " fill-opacity="1" fill-rule="nonzero"/></g></g></g></g><g clip-path="url(#fc4616ab13)"><g transform="matrix(1, 0, 0, 1, 156, 360)"><g clip-path="url(#99e9c629f0)"><g clip-path="url(#98b4f0bfc8)"><path fill="#bd1f2d" d="M 42.769531 50.503906 L 0.988281 50.503906 L 0.988281 0.886719 L 42.769531 0.886719 Z M 42.769531 50.503906 " fill-opacity="1" fill-rule="nonzero"/></g></g></g></g><g clip-path="url(#4a4aea98ab)"><g transform="matrix(1, 0, 0, 1, 117, 311)"><g clip-path="url(#add5a9f7bd)"><g clip-path="url(#39ea9e8a7c)"><path fill="#bd1f2d" d="M 39.988281 49.816406 L 0.40625 49.816406 L 0.40625 0.183594 L 39.988281 0.183594 Z M 39.988281 49.816406 " fill-opacity="1" fill-rule="nonzero"/></g></g></g></g><g clip-path="url(#e19667f7a1)"><g transform="matrix(1, 0, 0, 1, 77, 261)"><g clip-path="url(#00d153e29b)"><g clip-path="url(#aa27aa8733)"><path fill="#bd1f2d" d="M 40.40625 50.128906 L 0.828125 50.128906 L 0.828125 0.496094 L 40.40625 0.496094 Z M 40.40625 50.128906 " fill-opacity="1" fill-rule="nonzero"/></g></g></g></g><g clip-path="url(#4c74dcc757)"><g transform="matrix(1, 0, 0, 1, 119, 161)"><g clip-path="url(#35eb7dad32)"><g clip-path="url(#e349e07d4f)"><path fill="#bd1f2d" d="M 40.1875 100.441406 L 0.609375 100.441406 L 0.609375 0.25 L 40.1875 0.25 Z M 40.1875 100.441406 " fill-opacity="1" fill-rule="nonzero"/></g></g></g></g><g clip-path="url(#92d31c6288)"><g transform="matrix(1, 0, 0, 1, 77, 108)"><g clip-path="url(#46d5b593a4)"><g clip-path="url(#cd36d804e2)"><path fill="#bd1f2d" d="M 42.609375 54.691406 L 0.828125 54.691406 L 0.828125 0.832031 L 42.609375 0.832031 Z M 42.609375 54.691406 " fill-opacity="1" fill-rule="nonzero"/></g></g></g></g><g clip-path="url(#b628f67ee1)"><g transform="matrix(1, 0, 0, 1, 40, 62)"><g clip-path="url(#f3f5ce4911)"><g clip-path="url(#1a21e89fd6)"><path fill="#bd1f2d" d="M 40.027344 50.355469 L 0.445312 50.355469 L 0.445312 -0.046875 L 40.027344 -0.046875 Z M 40.027344 50.355469 " fill-opacity="1" fill-rule="nonzero"/></g></g></g></g><g clip-path="url(#128155c463)"><g transform="matrix(1, 0, 0, 1, 0, 1)"><g clip-path="url(#8a1c4b740a)"><g clip-path="url(#c938227e90)"><path fill="#bd1f2d" d="M 40.445312 61.023438 L 0.867188 61.023438 L 0.867188 -0.0507812 L 40.445312 -0.0507812 Z M 40.445312 61.023438 " fill-opacity="1" fill-rule="nonzero"/></g></g></g></g></g></g></g></g></g></g><g mask="url(#1baed08035)"><g transform="matrix(1, 0, 0, 1, 934, 367)"><g clip-path="url(#f075817540)"><g clip-path="url(#d2294f0fb5)"><g><g clip-path="url(#6506b5cd5c)"><g clip-path="url(#c5f2822102)"><g transform="matrix(1, 0, 0, 1, 0, 1)"><g clip-path="url(#32756b513a)"><g clip-path="url(#b2bfe784ae)"><path fill="#bd1f2d" d="M 0.644531 0.0625 L 41.597656 0.0625 L 41.597656 150.917969 L 0.644531 150.917969 Z M 0.644531 0.0625 " fill-opacity="1" fill-rule="nonzero"/></g></g></g></g><g clip-path="url(#77c1fb93a0)"><g transform="matrix(1, 0, 0, 1, 40, 101)"><g clip-path="url(#1c77af3761)"><g clip-path="url(#17efb2131f)"><path fill="#bd1f2d" d="M 0.488281 0.605469 L 40.355469 0.605469 L 40.355469 151.503906 L 0.488281 151.503906 Z M 0.488281 0.605469 " fill-opacity="1" fill-rule="nonzero"/></g></g></g></g><g clip-path="url(#da2ca63a6c)"><g transform="matrix(1, 0, 0, 1, 77, 200)"><g clip-path="url(#91a1e9b4b4)"><g clip-path="url(#78776e6a34)"><path fill="#bd1f2d" d="M 0.65625 0.980469 L 43.21875 0.980469 L 43.21875 52.523438 L 0.65625 52.523438 Z M 0.65625 0.980469 " fill-opacity="1" fill-rule="nonzero"/></g></g></g></g><g clip-path="url(#9ecac7b2bc)"><g transform="matrix(1, 0, 0, 1, 120, 252)"><g clip-path="url(#5090dc9132)"><g clip-path="url(#c787648cc9)"><path fill="#bd1f2d" d="M 0.21875 0.496094 L 40.085938 0.496094 L 40.085938 99.851562 L 0.21875 99.851562 Z M 0.21875 0.496094 " fill-opacity="1" fill-rule="nonzero"/></g></g></g></g><g clip-path="url(#81205b8280)"><g transform="matrix(1, 0, 0, 1, 82, 351)"><g clip-path="url(#26d7c3e953)"><g clip-path="url(#edff507d00)"><path fill="#bd1f2d" d="M 0.570312 0.871094 L 40.4375 0.871094 L 40.4375 100.226562 L 0.570312 100.226562 Z M 0.570312 0.871094 " fill-opacity="1" fill-rule="nonzero"/></g></g></g></g><g clip-path="url(#e837065e66)"><g transform="matrix(1, 0, 0, 1, 120, 401)"><g clip-path="url(#9ca6cf0abf)"><g clip-path="url(#5918997cf8)"><path fill="#bd1f2d" d="M 0.21875 0.558594 L 42.300781 0.558594 L 42.300781 50.203125 L 0.21875 50.203125 Z M 0.21875 0.558594 " fill-opacity="1" fill-rule="nonzero"/></g></g></g></g></g></g></g></g></g></g><g mask="url(#611ec9bb82)"><g transform="matrix(1, 0, 0, 1, 946, 379)"><g clip-path="url(#4bd7b60f23)"><g clip-path="url(#5271b2e4b9)"><g><g clip-path="url(#358eae289b)"><g clip-path="url(#19d511fecb)"><g transform="matrix(1, 0, 0, 1, 0, 1)"><g clip-path="url(#77fb90f2fb)"><g clip-path="url(#9dc058487c)"><path fill="#bd1f2d" d="M 0.644531 0.0625 L 41.597656 0.0625 L 41.597656 150.917969 L 0.644531 150.917969 Z M 0.644531 0.0625 " fill-opacity="1" fill-rule="nonzero"/></g></g></g></g><g clip-path="url(#e1b8069286)"><g transform="matrix(1, 0, 0, 1, 40, 101)"><g clip-path="url(#872faf26d3)"><g clip-path="url(#b7502a8de4)"><path fill="#bd1f2d" d="M 0.488281 0.605469 L 40.355469 0.605469 L 40.355469 151.503906 L 0.488281 151.503906 Z M 0.488281 0.605469 " fill-opacity="1" fill-rule="nonzero"/></g></g></g></g><g clip-path="url(#77ec9b82b6)"><g transform="matrix(1, 0, 0, 1, 77, 200)"><g clip-path="url(#44cf2a7dc6)"><g clip-path="url(#b964d8d61a)"><path fill="#bd1f2d" d="M 0.65625 0.980469 L 43.21875 0.980469 L 43.21875 52.523438 L 0.65625 52.523438 Z M 0.65625 0.980469 " fill-opacity="1" fill-rule="nonzero"/></g></g></g></g><g clip-path="url(#bdbc184a0c)"><g transform="matrix(1, 0, 0, 1, 120, 252)"><g clip-path="url(#7eb4a25ed3)"><g clip-path="url(#f7e8b7b6cd)"><path fill="#bd1f2d" d="M 0.21875 0.496094 L 40.085938 0.496094 L 40.085938 99.851562 L 0.21875 99.851562 Z M 0.21875 0.496094 " fill-opacity="1" fill-rule="nonzero"/></g></g></g></g><g clip-path="url(#3cd92d995d)"><g transform="matrix(1, 0, 0, 1, 82, 351)"><g clip-path="url(#119e14aaa9)"><g clip-path="url(#cd800c627d)"><path fill="#bd1f2d" d="M 0.570312 0.871094 L 40.4375 0.871094 L 40.4375 100.226562 L 0.570312 100.226562 Z M 0.570312 0.871094 " fill-opacity="1" fill-rule="nonzero"/></g></g></g></g><g clip-path="url(#0ff7c8d492)"><g transform="matrix(1, 0, 0, 1, 120, 401)"><g clip-path="url(#562777a0eb)"><g clip-path="url(#6f05488015)"><path fill="#bd1f2d" d="M 0.21875 0.558594 L 42.300781 0.558594 L 42.300781 50.203125 L 0.21875 50.203125 Z M 0.21875 0.558594 " fill-opacity="1" fill-rule="nonzero"/></g></g></g></g></g></g></g></g></g></g><g mask="url(#897a644b7f)"><g transform="matrix(1, 0, 0, 1, 821, 0.000000000000039746)"><g clip-path="url(#7abbbe0451)"><g clip-path="url(#9dcaa1985e)"><g transform="matrix(1, 0, 0, 1, 0, 0.000000000000039746)"><g clip-path="url(#fb8a70055b)"><g clip-path="url(#f5297f570e)"><g transform="matrix(1, 0, 0, 1, 119, 220)"><g clip-path="url(#152409e6db)"><g clip-path="url(#33383f61f4)"><path fill="#bd1f2d" d="M 41.324219 151.0625 L 0.371094 151.0625 L 0.371094 0.207031 L 41.324219 0.207031 Z M 41.324219 151.0625 " fill-opacity="1" fill-rule="nonzero"/></g></g></g></g><g clip-path="url(#b4ed97c95c)"><g transform="matrix(1, 0, 0, 1, 80, 119)"><g clip-path="url(#48bf0f0fe2)"><g clip-path="url(#7060a964f4)"><path fill="#bd1f2d" d="M 40.480469 151.519531 L 0.613281 151.519531 L 0.613281 0.621094 L 40.480469 0.621094 Z M 40.480469 151.519531 " fill-opacity="1" fill-rule="nonzero"/></g></g></g></g><g clip-path="url(#723db0ffa8)"><g transform="matrix(1, 0, 0, 1, 40, 119)"><g clip-path="url(#bfcbef9261)"><g clip-path="url(#410de603ae)"><path fill="#bd1f2d" d="M 43.3125 52.144531 L 0.746094 52.144531 L 0.746094 0.601562 L 43.3125 0.601562 Z M 43.3125 52.144531 " fill-opacity="1" fill-rule="nonzero"/></g></g></g></g><g clip-path="url(#2050951941)"><g transform="matrix(1, 0, 0, 1, 0, 20)"><g clip-path="url(#fe3ef0c47a)"><g clip-path="url(#ff6ee54ddc)"><path fill="#bd1f2d" d="M 40.746094 99.628906 L 0.882812 99.628906 L 0.882812 0.277344 L 40.746094 0.277344 Z M 40.746094 99.628906 " fill-opacity="1" fill-rule="nonzero"/></g></g></g></g><g clip-path="url(#977d74d300)"><g transform="matrix(1, 0, 0, 1, 38, 0.000000000000039746)"><g clip-path="url(#154b961d51)"><g clip-path="url(#2d442952d6)"><path fill="#bd1f2d" d="M 40.398438 20.253906 L 0.53125 20.253906 L 0.53125 -79.097656 L 40.398438 -79.097656 Z M 40.398438 20.253906 " fill-opacity="1" fill-rule="nonzero"/></g></g></g></g></g></g></g></g></g></g><g mask="url(#ee9bcd2e4f)"><g transform="matrix(1, 0, 0, 1, 809, 0.000000000000039746)"><g clip-path="url(#c561543676)"><g clip-path="url(#2f873dd990)"><g transform="matrix(1, 0, 0, 1, 0, 0.000000000000039746)"><g clip-path="url(#6aaedebeca)"><g clip-path="url(#6e15cad39b)"><g transform="matrix(1, 0, 0, 1, 119, 208)"><g clip-path="url(#6aebee95bd)"><g clip-path="url(#09a8524ed1)"><path fill="#bd1f2d" d="M 41.324219 151.0625 L 0.371094 151.0625 L 0.371094 0.207031 L 41.324219 0.207031 Z M 41.324219 151.0625 " fill-opacity="1" fill-rule="nonzero"/></g></g></g></g><g clip-path="url(#3243260f81)"><g transform="matrix(1, 0, 0, 1, 80, 107)"><g clip-path="url(#88d81e21af)"><g clip-path="url(#4bb6d3d59c)"><path fill="#bd1f2d" d="M 40.480469 151.519531 L 0.613281 151.519531 L 0.613281 0.621094 L 40.480469 0.621094 Z M 40.480469 151.519531 " fill-opacity="1" fill-rule="nonzero"/></g></g></g></g><g clip-path="url(#22e57740ba)"><g transform="matrix(1, 0, 0, 1, 40, 107)"><g clip-path="url(#f3433b771a)"><g clip-path="url(#011c7e1da4)"><path fill="#bd1f2d" d="M 43.3125 52.144531 L 0.746094 52.144531 L 0.746094 0.601562 L 43.3125 0.601562 Z M 43.3125 52.144531 " fill-opacity="1" fill-rule="nonzero"/></g></g></g></g><g clip-path="url(#c0bc4a5dd3)"><g transform="matrix(1, 0, 0, 1, 0, 8)"><g clip-path="url(#f2e90dd3ac)"><g clip-path="url(#46ed345d3d)"><path fill="#bd1f2d" d="M 40.746094 99.628906 L 0.882812 99.628906 L 0.882812 0.277344 L 40.746094 0.277344 Z M 40.746094 99.628906 " fill-opacity="1" fill-rule="nonzero"/></g></g></g></g><g clip-path="url(#05c8526779)"><g transform="matrix(1, 0, 0, 1, 38, 0.000000000000039746)"><g clip-path="url(#80de544c99)"><g clip-path="url(#f28e2009ee)"><path fill="#bd1f2d" d="M 40.398438 8.253906 L 0.53125 8.253906 L 0.53125 -91.097656 L 40.398438 -91.097656 Z M 40.398438 8.253906 " fill-opacity="1" fill-rule="nonzero"/></g></g></g></g></g></g></g></g></g></g><g transform="matrix(1, 0, 0, 1, 179, 352)"><g clip-path="url(#b1be4ade96)"><g fill="#000000" fill-opacity="1"><g transform="translate(0.56288, 107.879893)"><g><path d="M 89.90625 -85.625 L 89.90625 -68.5 L 21.40625 -68.5 L 21.40625 -51.375 L 72.78125 -51.375 C 75.914062 -51.375 78.785156 -50.601562 81.390625 -49.0625 C 83.992188 -47.53125 86.0625 -45.460938 87.59375 -42.859375 C 89.132812 -40.253906 89.90625 -37.382812 89.90625 -34.25 L 89.90625 -17.125 C 89.90625 -13.988281 89.132812 -11.117188 87.59375 -8.515625 C 86.0625 -5.910156 83.992188 -3.835938 81.390625 -2.296875 C 78.785156 -0.765625 75.914062 0 72.78125 0 L 4.28125 0 L 4.28125 -17.125 L 72.78125 -17.125 L 72.78125 -34.25 L 21.40625 -34.25 C 18.269531 -34.25 15.398438 -35.015625 12.796875 -36.546875 C 10.191406 -38.085938 8.117188 -40.160156 6.578125 -42.765625 C 5.046875 -45.367188 4.28125 -48.238281 4.28125 -51.375 L 4.28125 -68.5 C 4.28125 -71.632812 5.046875 -74.503906 6.578125 -77.109375 C 8.117188 -79.710938 10.191406 -81.78125 12.796875 -83.3125 C 15.398438 -84.851562 18.269531 -85.625 21.40625 -85.625 Z M 89.90625 -85.625 "/></g></g></g><g fill="#000000" fill-opacity="1"><g transform="translate(94.541713, 107.879893)"><g><path d="M 89.90625 -85.625 L 89.90625 -68.5 L 21.40625 -68.5 L 21.40625 -51.375 L 89.90625 -51.375 L 89.90625 -34.25 L 21.40625 -34.25 L 21.40625 -17.125 L 89.90625 -17.125 L 89.90625 0 L 21.40625 0 C 18.269531 0 15.398438 -0.765625 12.796875 -2.296875 C 10.191406 -3.835938 8.117188 -5.910156 6.578125 -8.515625 C 5.046875 -11.117188 4.28125 -13.988281 4.28125 -17.125 L 4.28125 -68.5 C 4.28125 -71.632812 5.046875 -74.503906 6.578125 -77.109375 C 8.117188 -79.710938 10.191406 -81.78125 12.796875 -83.3125 C 15.398438 -84.851562 18.269531 -85.625 21.40625 -85.625 Z M 89.90625 -85.625 "/></g></g></g><g fill="#000000" fill-opacity="1"><g transform="translate(188.520545, 107.879893)"><g><path d="M 21.40625 -85.625 L 72.78125 -85.625 C 75.914062 -85.625 78.785156 -84.851562 81.390625 -83.3125 C 83.992188 -81.78125 86.0625 -79.710938 87.59375 -77.109375 C 89.132812 -74.503906 89.90625 -71.632812 89.90625 -68.5 L 89.90625 0 L 72.78125 0 L 72.78125 -34.25 L 21.40625 -34.25 L 21.40625 0 L 4.28125 0 L 4.28125 -68.5 C 4.28125 -71.632812 5.046875 -74.503906 6.578125 -77.109375 C 8.117188 -79.710938 10.191406 -81.78125 12.796875 -83.3125 C 15.398438 -84.851562 18.269531 -85.625 21.40625 -85.625 Z M 21.40625 -68.5 L 21.40625 -51.375 L 72.78125 -51.375 L 72.78125 -68.5 Z M 21.40625 -68.5 "/></g></g></g><g fill="#000000" fill-opacity="1"><g transform="translate(282.499388, 107.879893)"><g><path d="M 21.40625 -85.625 L 72.78125 -85.625 C 75.914062 -85.625 78.785156 -84.851562 81.390625 -83.3125 C 83.992188 -81.78125 86.0625 -79.710938 87.59375 -77.109375 C 89.132812 -74.503906 89.90625 -71.632812 89.90625 -68.5 L 89.90625 0 L 72.78125 0 L 72.78125 -68.5 L 55.65625 -68.5 L 55.65625 0 L 38.53125 0 L 38.53125 -68.5 L 21.40625 -68.5 L 21.40625 0 L 4.28125 0 L 4.28125 -68.5 C 4.28125 -71.632812 5.046875 -74.503906 6.578125 -77.109375 C 8.117188 -79.710938 10.191406 -81.78125 12.796875 -83.3125 C 15.398438 -84.851562 18.269531 -85.625 21.40625 -85.625 Z M 21.40625 -85.625 "/></g></g></g><g fill="#000000" fill-opacity="1"><g transform="translate(376.478211, 107.879893)"><g/></g></g><g fill="#000000" fill-opacity="1"><g transform="translate(423.360615, 107.879893)"><g><path d="M 89.90625 0 L 21.40625 0 C 18.269531 0 15.398438 -0.765625 12.796875 -2.296875 C 10.191406 -3.835938 8.117188 -5.910156 6.578125 -8.515625 C 5.046875 -11.117188 4.28125 -13.988281 4.28125 -17.125 L 4.28125 -68.5 C 4.28125 -71.632812 5.046875 -74.503906 6.578125 -77.109375 C 8.117188 -79.710938 10.191406 -81.78125 12.796875 -83.3125 C 15.398438 -84.851562 18.269531 -85.625 21.40625 -85.625 L 89.90625 -85.625 L 89.90625 -68.5 L 21.40625 -68.5 L 21.40625 -17.125 L 89.90625 -17.125 Z M 89.90625 0 "/></g></g></g><g fill="#000000" fill-opacity="1"><g transform="translate(517.339437, 107.879893)"><g><path d="M 21.40625 -85.625 L 72.78125 -85.625 C 75.914062 -85.625 78.785156 -84.851562 81.390625 -83.3125 C 83.992188 -81.78125 86.0625 -79.710938 87.59375 -77.109375 C 89.132812 -74.503906 89.90625 -71.632812 89.90625 -68.5 L 89.90625 0 L 72.78125 0 L 72.78125 -34.25 L 21.40625 -34.25 L 21.40625 0 L 4.28125 0 L 4.28125 -68.5 C 4.28125 -71.632812 5.046875 -74.503906 6.578125 -77.109375 C 8.117188 -79.710938 10.191406 -81.78125 12.796875 -83.3125 C 15.398438 -84.851562 18.269531 -85.625 21.40625 -85.625 Z M 21.40625 -68.5 L 21.40625 -51.375 L 72.78125 -51.375 L 72.78125 -68.5 Z M 21.40625 -68.5 "/></g></g></g><g fill="#000000" fill-opacity="1"><g transform="translate(611.31826, 107.879893)"><g><path d="M 89.90625 -68.5 L 89.90625 -51.375 C 89.90625 -48.238281 89.132812 -45.367188 87.59375 -42.765625 C 86.0625 -40.160156 83.992188 -38.085938 81.390625 -36.546875 C 78.785156 -35.015625 75.914062 -34.25 72.78125 -34.25 L 55.65625 -34.25 L 72.78125 -17.125 L 89.90625 -17.125 L 89.90625 0 L 69.359375 0 C 66.929688 0 64.863281 -0.851562 63.15625 -2.5625 L 31.46875 -34.25 L 21.40625 -34.25 L 21.40625 0 L 4.28125 0 L 4.28125 -85.625 L 72.78125 -85.625 C 75.914062 -85.625 78.785156 -84.851562 81.390625 -83.3125 C 83.992188 -81.78125 86.0625 -79.710938 87.59375 -77.109375 C 89.132812 -74.503906 89.90625 -71.632812 89.90625 -68.5 Z M 72.78125 -68.5 L 21.40625 -68.5 L 21.40625 -51.375 L 72.78125 -51.375 Z M 72.78125 -68.5 "/></g></g></g><g fill="#000000" fill-opacity="1"><g transform="translate(705.297123, 107.879893)"><g><path d="M 47.09375 0 C 43.238281 0 39.671875 -1.351562 36.390625 -4.0625 L 7.5 -28.90625 C 5.351562 -30.820312 4.28125 -33.101562 4.28125 -35.75 L 4.28125 -85.625 L 21.40625 -85.625 L 21.40625 -39.609375 L 47.09375 -17.453125 L 72.78125 -39.609375 L 72.78125 -85.625 L 89.90625 -85.625 L 89.796875 -35.75 C 89.796875 -33.039062 88.765625 -30.757812 86.703125 -28.90625 L 57.796875 -4.0625 C 54.660156 -1.351562 51.09375 0 47.09375 0 Z M 47.09375 0 "/></g></g></g><g fill="#000000" fill-opacity="1"><g transform="translate(799.275906, 107.879893)"><g><path d="M 89.90625 0 L 4.28125 0 L 4.28125 -17.125 L 38.53125 -17.125 L 38.53125 -68.5 L 4.28125 -68.5 L 4.28125 -85.625 L 89.90625 -85.625 L 89.90625 -68.5 L 55.65625 -68.5 L 55.65625 -17.125 L 89.90625 -17.125 Z M 89.90625 0 "/></g></g></g><g fill="#000000" fill-opacity="1"><g transform="translate(893.254768, 107.879893)"><g><path d="M 21.40625 0 L 4.28125 0 L 4.28125 -77.0625 C 4.28125 -79.414062 5.117188 -81.429688 6.796875 -83.109375 C 8.472656 -84.785156 10.488281 -85.625 12.84375 -85.625 C 15.195312 -85.625 17.226562 -84.769531 18.9375 -83.0625 L 72.78125 -29.21875 L 72.78125 -85.625 L 89.90625 -85.625 L 89.90625 -8.5625 C 89.90625 -6.207031 89.066406 -4.191406 87.390625 -2.515625 C 85.710938 -0.835938 83.695312 0 81.34375 0 C 78.988281 0 76.957031 -0.851562 75.25 -2.5625 L 21.40625 -56.40625 Z M 21.40625 0 "/></g></g></g><g fill="#000000" fill-opacity="1"><g transform="translate(987.233631, 107.879893)"><g><path d="M 89.90625 -85.625 L 89.90625 -68.5 L 21.40625 -68.5 L 21.40625 -17.125 L 72.78125 -17.125 L 72.78125 -34.25 L 38.53125 -34.25 L 38.53125 -51.375 L 89.90625 -51.375 L 89.90625 -17.125 C 89.90625 -14.050781 89.132812 -11.210938 87.59375 -8.609375 C 86.0625 -6.003906 84.007812 -3.914062 81.4375 -2.34375 C 78.875 -0.78125 75.988281 0 72.78125 0 L 21.40625 0 C 18.269531 0 15.398438 -0.765625 12.796875 -2.296875 C 10.191406 -3.835938 8.117188 -5.910156 6.578125 -8.515625 C 5.046875 -11.117188 4.28125 -13.988281 4.28125 -17.125 L 4.28125 -68.5 C 4.28125 -71.632812 5.046875 -74.503906 6.578125 -77.109375 C 8.117188 -79.710938 10.191406 -81.78125 12.796875 -83.3125 C 15.398438 -84.851562 18.269531 -85.625 21.40625 -85.625 Z M 89.90625 -85.625 "/></g></g></g></g></g><g mask="url(#17d83af15f)"><g transform="matrix(1, 0, 0, 1, 0, 180)"><g clip-path="url(#30c0f24617)"><g clip-path="url(#f268c9d1a2)"><g transform="matrix(1, 0, 0, 1, 0, 0.000000000000028422)"><g clip-path="url(#059c927ea4)"><g clip-path="url(#d0932bfac0)"><g transform="matrix(1, 0, 0, 1, 0, 0.000000000000028422)"><g clip-path="url(#1aa9947b0d)"><g clip-path="url(#8a76f1ef9f)"><path fill="#bd1f2d" d="M -38.957031 0.03125 L 1.996094 0.03125 L 1.996094 150.886719 L -38.957031 150.886719 Z M -38.957031 0.03125 " fill-opacity="1" fill-rule="nonzero"/></g></g></g></g><g clip-path="url(#4f1611e2e6)"><g transform="matrix(1, 0, 0, 1, 0, 100)"><g clip-path="url(#8f14dfc179)"><g clip-path="url(#d5569bad66)"><path fill="#bd1f2d" d="M 0.886719 0.570312 L 40.753906 0.570312 L 40.753906 151.46875 L 0.886719 151.46875 Z M 0.886719 0.570312 " fill-opacity="1" fill-rule="nonzero"/></g></g></g></g><g clip-path="url(#d8d9cd1b20)"><g transform="matrix(1, 0, 0, 1, 38, 199)"><g clip-path="url(#19a4b216fb)"><g clip-path="url(#2b2974d97b)"><path fill="#bd1f2d" d="M 0.0546875 0.949219 L 42.617188 0.949219 L 42.617188 52.492188 L 0.0546875 52.492188 Z M 0.0546875 0.949219 " fill-opacity="1" fill-rule="nonzero"/></g></g></g></g><g clip-path="url(#75037c0b5b)"><g transform="matrix(1, 0, 0, 1, 80, 251)"><g clip-path="url(#3b1d010550)"><g clip-path="url(#a17858ced7)"><path fill="#bd1f2d" d="M 0.617188 0.464844 L 40.484375 0.464844 L 40.484375 99.816406 L 0.617188 99.816406 Z M 0.617188 0.464844 " fill-opacity="1" fill-rule="nonzero"/></g></g></g></g><g clip-path="url(#0548820054)"><g transform="matrix(1, 0, 0, 1, 42, 350)"><g clip-path="url(#07315784d9)"><g clip-path="url(#bcfafad6c0)"><path fill="#bd1f2d" d="M 0.96875 0.839844 L 40.835938 0.839844 L 40.835938 100.191406 L 0.96875 100.191406 Z M 0.96875 0.839844 " fill-opacity="1" fill-rule="nonzero"/></g></g></g></g><g clip-path="url(#4bf12cd077)"><g transform="matrix(1, 0, 0, 1, 80, 400)"><g clip-path="url(#9bacf6ebd2)"><g clip-path="url(#97d3b2bbf6)"><path fill="#bd1f2d" d="M 0.617188 0.527344 L 42.699219 0.527344 L 42.699219 50.171875 L 0.617188 50.171875 Z M 0.617188 0.527344 " fill-opacity="1" fill-rule="nonzero"/></g></g></g></g><g clip-path="url(#f1405ceb8e)"><g transform="matrix(1, 0, 0, 1, 122, 450)"><g clip-path="url(#a4a7db2c08)"><g clip-path="url(#6c7f45e2c2)"><path fill="#bd1f2d" d="M 0.699219 0.214844 L 40.566406 0.214844 L 40.566406 49.890625 L 0.699219 49.890625 Z M 0.699219 0.214844 " fill-opacity="1" fill-rule="nonzero"/></g></g></g></g><g clip-path="url(#b40056db2c)"><g transform="matrix(1, 0, 0, 1, 162, 499)"><g clip-path="url(#583642df43)"><g clip-path="url(#4536d276e2)"><path fill="#bd1f2d" d="M 0.566406 0.902344 L 40.433594 0.902344 L 40.433594 50.578125 L 0.566406 50.578125 Z M 0.566406 0.902344 " fill-opacity="1" fill-rule="nonzero"/></g></g></g></g><g clip-path="url(#9b9a77923e)"><g transform="matrix(1, 0, 0, 1, 120, 549)"><g clip-path="url(#acc597c929)"><g clip-path="url(#2a3cc69d53)"><path fill="#bd1f2d" d="M 0.484375 0.589844 L 40.351562 0.589844 L 40.351562 100.722656 L 0.484375 100.722656 Z M 0.484375 0.589844 " fill-opacity="1" fill-rule="nonzero"/></g></g></g></g></g></g></g></g></g></g><g mask="url(#666fdcbe21)"><g transform="matrix(1, 0, 0, 1, 0, 192)"><g clip-path="url(#6fcd463bc5)"><g clip-path="url(#088514a51a)"><g transform="matrix(1, 0, 0, 1, 0, 0.000000000000028422)"><g clip-path="url(#e8dc984eff)"><g clip-path="url(#752b5369e2)"><g transform="matrix(1, 0, 0, 1, 0, 0.000000000000028422)"><g clip-path="url(#8b75bc0b8a)"><g clip-path="url(#e662a3e9a1)"><path fill="#bd1f2d" d="M -26.957031 0.03125 L 13.996094 0.03125 L 13.996094 150.886719 L -26.957031 150.886719 Z M -26.957031 0.03125 " fill-opacity="1" fill-rule="nonzero"/></g></g></g></g><g clip-path="url(#86de123754)"><g transform="matrix(1, 0, 0, 1, 12, 100)"><g clip-path="url(#bd3b66901e)"><g clip-path="url(#bb184fb3e2)"><path fill="#bd1f2d" d="M 0.886719 0.570312 L 40.753906 0.570312 L 40.753906 151.46875 L 0.886719 151.46875 Z M 0.886719 0.570312 " fill-opacity="1" fill-rule="nonzero"/></g></g></g></g><g clip-path="url(#98459a0da1)"><g transform="matrix(1, 0, 0, 1, 50, 199)"><g clip-path="url(#18fac25a54)"><g clip-path="url(#9a9a86339b)"><path fill="#bd1f2d" d="M 0.0546875 0.949219 L 42.617188 0.949219 L 42.617188 52.492188 L 0.0546875 52.492188 Z M 0.0546875 0.949219 " fill-opacity="1" fill-rule="nonzero"/></g></g></g></g><g clip-path="url(#ba9b090411)"><g transform="matrix(1, 0, 0, 1, 92, 251)"><g clip-path="url(#5c71be5a73)"><g clip-path="url(#a34c22fe2e)"><path fill="#bd1f2d" d="M 0.617188 0.464844 L 40.484375 0.464844 L 40.484375 99.816406 L 0.617188 99.816406 Z M 0.617188 0.464844 " fill-opacity="1" fill-rule="nonzero"/></g></g></g></g><g clip-path="url(#c4556466da)"><g transform="matrix(1, 0, 0, 1, 54, 350)"><g clip-path="url(#063c52f3e3)"><g clip-path="url(#d23319a287)"><path fill="#bd1f2d" d="M 0.96875 0.839844 L 40.835938 0.839844 L 40.835938 100.191406 L 0.96875 100.191406 Z M 0.96875 0.839844 " fill-opacity="1" fill-rule="nonzero"/></g></g></g></g><g clip-path="url(#32901737d3)"><g transform="matrix(1, 0, 0, 1, 92, 400)"><g clip-path="url(#f0ab95d9f9)"><g clip-path="url(#37b23d108b)"><path fill="#bd1f2d" d="M 0.617188 0.527344 L 42.699219 0.527344 L 42.699219 50.171875 L 0.617188 50.171875 Z M 0.617188 0.527344 " fill-opacity="1" fill-rule="nonzero"/></g></g></g></g><g clip-path="url(#63b1d5c4ca)"><g transform="matrix(1, 0, 0, 1, 134, 450)"><g clip-path="url(#2679bcbef1)"><g clip-path="url(#4ca7895af2)"><path fill="#bd1f2d" d="M 0.699219 0.214844 L 40.566406 0.214844 L 40.566406 49.890625 L 0.699219 49.890625 Z M 0.699219 0.214844 " fill-opacity="1" fill-rule="nonzero"/></g></g></g></g><g clip-path="url(#1f0890ec70)"><g transform="matrix(1, 0, 0, 1, 174, 499)"><g clip-path="url(#470f41a944)"><g clip-path="url(#f7091e3fd6)"><path fill="#bd1f2d" d="M 0.566406 0.902344 L 40.433594 0.902344 L 40.433594 50.578125 L 0.566406 50.578125 Z M 0.566406 0.902344 " fill-opacity="1" fill-rule="nonzero"/></g></g></g></g><g clip-path="url(#ce2622bd0e)"><g transform="matrix(1, 0, 0, 1, 132, 549)"><g clip-path="url(#58597ab220)"><g clip-path="url(#db9087a8e1)"><path fill="#bd1f2d" d="M 0.484375 0.589844 L 40.351562 0.589844 L 40.351562 100.722656 L 0.484375 100.722656 Z M 0.484375 0.589844 " fill-opacity="1" fill-rule="nonzero"/></g></g></g></g></g></g></g></g></g></g></svg>